<?xml version="1.0" standalone="no"?>
<!DOCTYPE svg PUBLIC "-//W3C//DTD SVG 20010904//EN"
 "http://www.w3.org/TR/2001/REC-SVG-20010904/DTD/svg10.dtd">
<svg version="1.0" xmlns="http://www.w3.org/2000/svg"
 width="112.000000pt" height="112.000000pt" viewBox="0 0 112.000000 112.000000"
 preserveAspectRatio="xMidYMid meet">
<metadata>
Created by potrace 1.14, written by Peter Selinger 2001-2017
</metadata>
<g transform="translate(0.000000,112.000000) scale(0.100000,-0.100000)"
fill="#000000" stroke="none">
<path d="M510 1087 c0 -7 3 -17 7 -21 7 -7 9 -13 18 -81 5 -33 0 -52 -24 -98
-16 -31 -39 -67 -51 -79 -45 -47 -79 -137 -82 -217 -1 -22 -5 -41 -10 -41 -4
0 -8 6 -8 13 -1 16 -28 47 -71 80 l-37 28 1 -65 c1 -53 -3 -70 -20 -93 -45
-57 -90 -129 -101 -160 -30 -89 6 -208 78 -258 87 -61 170 -78 365 -77 176 1
259 32 344 128 113 129 103 321 -31 592 -62 124 -75 139 -76 81 -1 -26 -9 -53
-24 -74 -12 -19 -24 -33 -25 -31 -2 1 -7 27 -13 57 -13 70 -51 144 -105 206
-56 64 -135 129 -135 110z"/>
</g>
</svg>
