<svg aria-hidden="true" style="position: absolute; width: 0; height: 0; overflow: hidden;" version="1.1" xmlns="http://www.w3.org/2000/svg" xmlns:xlink="http://www.w3.org/1999/xlink">
<defs>
<symbol id="01" viewBox="0 0 28 32">
<path d="M13.302 17.039c-0.045 0-0.085-0.017-0.121-0.050-0.031-0.033-0.047-0.076-0.047-0.128v-0.655h-0.498c-0.049 0-0.090-0.017-0.121-0.050s-0.047-0.076-0.047-0.128v-0.271c0-0.052 0.016-0.095 0.047-0.128s0.072-0.050 0.121-0.050h0.498v-0.363h-0.498c-0.049 0-0.090-0.017-0.121-0.050-0.031-0.038-0.047-0.081-0.047-0.128v-0.534c0-0.052 0.016-0.095 0.047-0.128 0.031-0.038 0.072-0.057 0.121-0.057h0.498v-2.087c0-0.052 0.016-0.095 0.047-0.128 0.036-0.033 0.076-0.050 0.121-0.050h1.892c0.373 0 0.696 0.062 0.97 0.185 0.278 0.119 0.494 0.299 0.646 0.541s0.229 0.549 0.229 0.919c0 0.347-0.076 0.632-0.229 0.855s-0.368 0.389-0.646 0.499c-0.274 0.109-0.597 0.164-0.97 0.164h-0.808v0.363h0.902c0.049 0 0.090 0.017 0.121 0.050 0.036 0.033 0.054 0.076 0.054 0.128v0.271c0 0.052-0.018 0.095-0.054 0.128-0.031 0.033-0.072 0.050-0.121 0.050h-0.902v0.655c0 0.052-0.016 0.095-0.047 0.128s-0.072 0.050-0.121 0.050h-0.916zM14.366 14.318h0.794c0.193 0 0.346-0.052 0.458-0.157s0.168-0.264 0.168-0.477c0-0.18-0.049-0.332-0.148-0.456s-0.258-0.185-0.478-0.185h-0.794v1.275z"></path>
<path d="M6.829 14.599c0 4.204 3.416 7.611 7.63 7.611s7.63-3.408 7.63-7.611c0-4.204-3.416-7.611-7.63-7.611-4.212 0.005-7.625 3.41-7.63 7.611zM14.459 8.037c3.633 0 6.577 2.938 6.577 6.562s-2.945 6.562-6.577 6.562c-3.633 0-6.577-2.938-6.577-6.562 0.004-3.622 2.946-6.558 6.577-6.562z"></path>
<path d="M24.682 23.504l-4.122 1.943c-0.569-1.056-1.661-1.728-2.862-1.762l-3.805-0.104c-0.602-0.017-1.194-0.169-1.729-0.445l-0.387-0.2c-1.982-1.031-4.345-1.028-6.325 0.007l0.024-0.875c0.008-0.29-0.221-0.531-0.511-0.539l-4.172-0.115c-0.291-0.008-0.532 0.22-0.54 0.51l-0.252 9.134c-0.008 0.29 0.221 0.531 0.511 0.539l4.187 0.115c0.285 0 0.518-0.226 0.526-0.511l0.012-0.437 1.084-0.579c0.425-0.228 0.923-0.283 1.388-0.151l6.472 1.812c0.011 0.003 0.023 0.006 0.034 0.008 0.468 0.098 0.945 0.147 1.422 0.146 1.012 0.001 2.013-0.217 2.933-0.638 0.023-0.010 0.044-0.022 0.065-0.036l9.384-6.056c0.234-0.151 0.309-0.457 0.172-0.699-0.697-1.233-2.242-1.703-3.51-1.067zM1.067 30.561l0.223-8.085 3.12 0.086-0.223 8.085-3.12-0.086zM18.096 30.424c-1.143 0.515-2.42 0.657-3.648 0.406l-6.455-1.808c-0.727-0.205-1.504-0.12-2.169 0.237l-0.554 0.296 0.148-5.375c1.755-1.165 4.006-1.284 5.875-0.313l0.387 0.2c0.677 0.349 1.423 0.541 2.184 0.563l3.805 0.104c1.069 0.031 1.976 0.79 2.193 1.835l-5.668-0.156c-0.291-0.008-0.532 0.221-0.54 0.51s0.221 0.531 0.511 0.539l6.269 0.172c0.285-0 0.518-0.227 0.526-0.511 0.006-0.228-0.011-0.456-0.051-0.681l4.227-1.993c0.004-0.002 0.008-0.004 0.012-0.006 0.6-0.303 1.325-0.201 1.818 0.254l-8.872 5.726z"></path>
<path d="M14.985 5.511v-4.987c0-0.29-0.236-0.525-0.526-0.525s-0.526 0.235-0.526 0.525v4.987c0 0.29 0.236 0.525 0.526 0.525s0.526-0.235 0.526-0.525z"></path>
<path d="M18.931 5.511v-2.362c0-0.29-0.236-0.525-0.526-0.525s-0.526 0.235-0.526 0.525v2.362c0 0.29 0.236 0.525 0.526 0.525s0.526-0.235 0.526-0.525z"></path>
<path d="M11.039 5.511v-2.362c0-0.29-0.236-0.525-0.526-0.525s-0.526 0.235-0.526 0.525v2.362c0 0.29 0.236 0.525 0.526 0.525s0.526-0.235 0.526-0.525z"></path>
</symbol>
<symbol id="02" viewBox="0 0 32 32">
<path d="M1.598 28.8h1.598v1.6c0 0.884 0.715 1.6 1.598 1.6h19.171c0.883 0 1.598-0.716 1.598-1.6v-14.436l3.395-3.157 0.724 0.781-2.885 2.683c-0.216 0.201-0.228 0.538-0.027 0.754s0.537 0.228 0.753 0.027l2.886-2.682c0.207-0.192 0.33-0.459 0.34-0.742s-0.091-0.558-0.284-0.766l-0.724-0.781 1.56-1.451c0.569-0.516 0.817-1.298 0.649-2.048s-0.725-1.351-1.459-1.575c-0.734-0.223-1.532-0.034-2.087 0.496l-2.84 2.639v-5.343c0-0.884-0.715-1.6-1.598-1.6h-1.598v-1.6c0-0.884-0.715-1.6-1.598-1.6h-14.911c-0.011 0-0.021 0.006-0.033 0.006-0.047 0.003-0.093 0.012-0.138 0.028-0.017 0.006-0.033 0.010-0.050 0.018-0.058 0.026-0.111 0.062-0.156 0.107l-5.325 5.333c-0.045 0.045-0.081 0.098-0.107 0.156-0.007 0.016-0.012 0.033-0.018 0.050-0.015 0.044-0.025 0.091-0.028 0.138 0.002 0.010-0.004 0.020-0.004 0.031v21.333c0 0.884 0.715 1.6 1.598 1.6zM24.496 30.4c0 0.295-0.238 0.533-0.533 0.533h-19.171c-0.294 0-0.532-0.239-0.532-0.533v-1.6h16.508c0.882 0 1.598-0.716 1.598-1.6v-8.267l2.13-1.98v13.447zM14.591 23.963c-0.563 0.465-1.205 0.825-1.895 1.063 0.277-0.678 0.68-1.298 1.187-1.826l0.030 0.033 0.677 0.731zM15.423 23.292l-0.81-0.874 2.071-2.472 1.353 1.46-2.614 1.885zM18.865 20.732l-0.88-0.945-0.569-0.614 9.367-8.711 1.45 1.565-6.76 6.284c-0.007 0.007-0.015 0.013-0.022 0.021l-2.585 2.4zM29.124 8.285c0.206-0.195 0.481-0.297 0.764-0.285 0.43 0.016 0.809 0.29 0.959 0.695s0.042 0.859-0.274 1.153l-1.561 1.452-1.449-1.564 1.561-1.451zM23.963 4.267c0.294 0 0.533 0.239 0.533 0.533v6.333l-2.13 1.98v-8.846h1.598zM21.301 1.6v12.504l-5 4.649c-0.008 0.009-0.014 0.019-0.020 0.029-0.007 0.008-0.018 0.011-0.025 0.019l-0.782 0.934h-11.746c-0.294 0-0.533 0.239-0.533 0.533s0.238 0.533 0.533 0.533h10.852l-1.062 1.267-0.071 0.067c-0.728 0.671-1.305 1.489-1.693 2.4h-4.83c-0.294 0-0.532 0.239-0.532 0.533s0.238 0.533 0.532 0.533h4.865c0.030 0.057 0.066 0.11 0.107 0.16 0.197 0.211 0.473 0.33 0.762 0.327 0.118 0 0.236-0.018 0.349-0.053 0.975-0.319 1.868-0.85 2.615-1.554l0.071-0.066 3.457-2.494c0.008-0.006 0.012-0.016 0.020-0.023s0.023-0.011 0.032-0.020l2.101-1.952v7.275c0 0.294-0.238 0.533-0.533 0.533h-19.171c-0.294 0-0.533-0.239-0.533-0.533v-20.8h3.728c0.883 0 1.598-0.716 1.598-1.6v-3.733h14.378c0.294 0 0.533 0.239 0.533 0.533zM5.325 1.821v2.979c0 0.295-0.238 0.533-0.533 0.533h-2.974l3.507-3.512z"></path>
<path d="M3.728 25.6h1.065c0.294 0 0.533-0.239 0.533-0.533s-0.238-0.533-0.533-0.533h-1.065c-0.294 0-0.533 0.239-0.533 0.533s0.238 0.533 0.533 0.533z"></path>
<path d="M3.195 9.6c0 0.295 0.238 0.533 0.533 0.533h14.911c0.294 0 0.533-0.239 0.533-0.533s-0.238-0.533-0.533-0.533h-14.911c-0.294 0-0.533 0.239-0.533 0.533z"></path>
<path d="M18.638 11.733h-2.662c-0.294 0-0.533 0.239-0.533 0.533s0.238 0.533 0.533 0.533h2.662c0.294 0 0.533-0.239 0.533-0.533s-0.238-0.533-0.533-0.533z"></path>
<path d="M3.728 12.8h9.585c0.294 0 0.533-0.239 0.533-0.533s-0.238-0.533-0.533-0.533h-9.585c-0.294 0-0.533 0.239-0.533 0.533s0.238 0.533 0.533 0.533z"></path>
<path d="M6.39 14.4h-2.663c-0.294 0-0.533 0.239-0.533 0.533s0.238 0.533 0.533 0.533h2.663c0.294 0 0.532-0.239 0.532-0.533s-0.238-0.533-0.532-0.533z"></path>
<path d="M18.106 14.4h-9.053c-0.294 0-0.532 0.239-0.532 0.533s0.238 0.533 0.532 0.533h9.053c0.294 0 0.532-0.239 0.532-0.533s-0.238-0.533-0.532-0.533z"></path>
<path d="M5.325 17.067h-1.598c-0.294 0-0.533 0.239-0.533 0.533s0.238 0.533 0.533 0.533h1.598c0.294 0 0.533-0.239 0.533-0.533s-0.238-0.533-0.533-0.533z"></path>
<path d="M14.911 17.067h-6.923c-0.294 0-0.533 0.239-0.533 0.533s0.238 0.533 0.533 0.533h6.923c0.294 0 0.533-0.239 0.533-0.533s-0.238-0.533-0.533-0.533z"></path>
<path d="M10.118 4.8h4.26c0.294 0 0.533-0.239 0.533-0.533s-0.238-0.533-0.533-0.533h-4.26c-0.294 0-0.533 0.239-0.533 0.533s0.238 0.533 0.533 0.533z"></path>
</symbol>
<symbol id="03" viewBox="0 0 32 32">
<path d="M29.432 2.312h-4.090c-0.259 0-0.469 0.21-0.469 0.469s0.21 0.469 0.469 0.469h4.090c0.259 0 0.469-0.21 0.469-0.469s-0.21-0.469-0.469-0.469z"></path>
<path d="M23.020 3.25h0.499c0.259 0 0.469-0.21 0.469-0.469s-0.21-0.469-0.469-0.469h-0.499c-0.259 0-0.469 0.21-0.469 0.469s0.21 0.469 0.469 0.469z"></path>
<path d="M23.020 5.455h6.413c0.259 0 0.469-0.21 0.469-0.469s-0.21-0.469-0.469-0.469h-6.413c-0.259 0-0.469 0.21-0.469 0.469s0.21 0.469 0.469 0.469z"></path>
<path d="M24.715 27.771c0-1.875-0.625-3.714-1.764-5.2l0.087-1.602c0.059-1.091-0.805-2.013-1.905-2.013h-5.131c-0.236-0.167-0.379-0.438-0.379-0.731v-1.31c0.796-0.515 1.354-1.103 1.764-1.802h0.907c1.049 0 1.903-0.855 1.903-1.906v-3.505c0-0.591-0.342-1.114-0.852-1.361v-2.46c0-1.12-0.91-2.031-2.028-2.031h-0.053c-0.032 0-0.058-0.026-0.058-0.058 0-1.12-0.91-2.031-2.029-2.031h-4.964c-2.464 0-4.469 2.007-4.469 4.474v2.105c-0.511 0.247-0.852 0.77-0.852 1.361v1.783c0 0.834 0.678 1.512 1.511 1.512h0.605c0.157 1.326 0.778 2.538 1.751 3.38 0.228 0.198 0.465 0.374 0.707 0.532v1.316c0 0.292-0.144 0.563-0.381 0.731h-5.129c-1.091 0-1.964 0.914-1.905 2.013l0.087 1.602c-1.139 1.486-1.764 3.325-1.764 5.2v1.768c-0.233 0.262-0.375 0.606-0.375 0.983 0 0.815 0.662 1.478 1.477 1.478h22.137c0.814 0 1.477-0.663 1.477-1.478 0-0.377-0.142-0.722-0.375-0.983v-1.768zM23.778 27.771v1.282c-0.054-0.006-0.109-0.009-0.164-0.009h-1.013l0.265-4.88c0.593 1.103 0.913 2.346 0.913 3.608zM19.212 9.472c0.031 0.071 0.048 0.148 0.048 0.229v1.783c0 0.316-0.257 0.574-0.573 0.574h-0.557v-1.769l0.289-0.101c0.357-0.125 0.638-0.387 0.794-0.716zM16.083 14.91h-1.176c-0.19 0-0.344-0.154-0.344-0.344s0.154-0.344 0.344-0.344h1.176c0.19 0 0.344 0.154 0.344 0.344s-0.154 0.344-0.344 0.344zM18.295 14.173h-0.474c0.132-0.377 0.223-0.772 0.271-1.177h0.595c0.203 0 0.396-0.040 0.573-0.113v0.323c0 0.533-0.433 0.967-0.966 0.967zM6.682 6.235c0-1.95 1.584-3.536 3.532-3.536h4.964c0.602 0 1.091 0.49 1.091 1.092 0 0.55 0.447 0.997 0.995 0.997h0.053c0.602 0 1.091 0.49 1.091 1.092v3.001c0 0.189-0.12 0.357-0.298 0.42l-0.985 0.344c-0.040 0.014-0.081-0.015-0.081-0.058l0.002-1.865c0.006-1.361-1.267-2.548-3.051-1.975-0.897 0.289-2.007 0.288-2.901 0-1.765-0.568-3.056 0.598-3.051 1.973l0.002 1.867c0 0.043-0.042 0.071-0.081 0.058l-0.985-0.344c-0.178-0.062-0.298-0.231-0.298-0.42l0-2.647zM5.83 11.484v-1.783c0-0.081 0.017-0.159 0.048-0.229 0.155 0.328 0.436 0.591 0.794 0.716l0.289 0.101v1.769h-0.558c-0.316 0-0.573-0.257-0.573-0.574zM7.907 12.454c-0.016-0.617-0.006-1.272-0.009-1.872 0.029 0.003 0.058 0.004 0.087 0.004 0.557 0 1-0.454 0.999-1.001l-0.002-1.868c-0.003-0.762 0.68-1.446 1.826-1.077 1.087 0.35 2.391 0.349 3.475 0 1.093-0.351 1.83 0.267 1.826 1.079l-0.002 1.866c-0.001 0.582 0.496 1.048 1.085 0.997v1.91c-0.014 0.406-0.080 0.801-0.193 1.178-0.233-0.239-0.557-0.388-0.916-0.388h-1.176c-0.707 0-1.281 0.575-1.281 1.283s0.575 1.283 1.281 1.283h0.596c-0.866 0.677-1.85 1.029-2.932 1.047-2.366-0.019-4.595-1.769-4.663-4.442zM10.405 18.224v-0.821c0.678 0.281 1.4 0.426 2.164 0.432h0.003c0.002 0 0.005 0 0.007-0 0.743-0.012 1.447-0.156 2.107-0.428v0.817c0 0.256 0.054 0.504 0.152 0.731h-4.586c0.099-0.227 0.153-0.475 0.153-0.731zM2.225 24.163l0.074 1.366c0.014 0.259 0.236 0.458 0.493 0.443s0.457-0.235 0.443-0.494l-0.247-4.56c-0.030-0.555 0.41-1.024 0.969-1.024h17.177c0.555 0 0.999 0.465 0.969 1.024l-0.441 8.126h-7.351c0.090-0.536 0.331-1.040 0.702-1.453l0.013-0.015c1.419-1.589 0.994-4.075-0.84-5.118-0.471-0.268-1.068 0.066-1.068 0.621v2.129c0 0.098-0.079 0.177-0.177 0.177h-0.793c-0.097 0-0.177-0.079-0.177-0.177v-2.129c0-0.554-0.597-0.889-1.068-0.621-1.839 1.046-2.255 3.532-0.838 5.12l0.012 0.013c0.371 0.413 0.613 0.917 0.702 1.453h-7.35l-0.075-1.387c-0.014-0.259-0.235-0.457-0.493-0.443s-0.457 0.235-0.443 0.494l0.072 1.337h-1.013c-0.056 0-0.11 0.003-0.164 0.009v-1.282c0-1.262 0.319-2.505 0.913-3.608zM11.726 29.043c-0.096-0.769-0.425-1.495-0.952-2.081l-0.011-0.013c-0.906-1.014-0.784-2.583 0.272-3.448v1.706c0 0.615 0.5 1.116 1.114 1.116h0.793c0.614 0 1.114-0.5 1.114-1.116v-1.706c1.049 0.859 1.183 2.427 0.271 3.449l-0.010 0.011c-0.527 0.586-0.857 1.312-0.953 2.081h-1.638zM23.614 31.061h-22.137c-0.297 0-0.539-0.242-0.539-0.54s0.242-0.54 0.539-0.54h22.137c0.297 0 0.539 0.242 0.539 0.54s-0.242 0.54-0.539 0.54z"></path>
<path d="M31.531 3.212c0.259 0 0.469-0.21 0.469-0.469v-0.908c0-1.011-0.822-1.834-1.832-1.834h-7.884c-1.010 0-1.832 0.823-1.832 1.834v3.948c0 1.011 0.822 1.834 1.832 1.834 0.18 0 0.327 0.147 0.327 0.328v2.441c0 0.353 0.228 0.653 0.567 0.747 0.341 0.095 0.69-0.048 0.87-0.348l1.802-3.009c0.059-0.098 0.166-0.159 0.281-0.159h4.036c1.010 0 1.832-0.823 1.832-1.834v-0.845c0-0.259-0.21-0.469-0.469-0.469s-0.469 0.21-0.469 0.469v0.845c0 0.494-0.401 0.896-0.894 0.896h-4.036c-0.442 0-0.858 0.236-1.085 0.615l-1.498 2.501v-1.85c0-0.698-0.567-1.266-1.265-1.266-0.493 0-0.895-0.402-0.895-0.896v-3.948c0-0.494 0.401-0.896 0.895-0.896h7.884c0.493 0 0.895 0.402 0.895 0.896v0.908c0 0.259 0.21 0.469 0.469 0.469z"></path>
</symbol>
<symbol id="04" viewBox="0 0 32 32">
<path d="M30 10h-1c0-0.133-0.053-0.26-0.146-0.354s-0.221-0.146-0.354-0.146h-23.5c-0.419 0-0.833-0.088-1.216-0.257s-0.726-0.417-1.007-0.728c-0.281-0.31-0.494-0.676-0.626-1.073s-0.178-0.818-0.137-1.235c0.092-0.753 0.459-1.445 1.029-1.945s1.306-0.771 2.064-0.762h1.893v1h-1.893c-0.51-0.011-1.006 0.167-1.394 0.499s-0.639 0.795-0.706 1.301c-0.028 0.278 0.003 0.559 0.090 0.825s0.23 0.51 0.417 0.717 0.417 0.373 0.673 0.486c0.256 0.113 0.532 0.172 0.812 0.171h23.5c0.398 0 0.779 0.158 1.061 0.439s0.439 0.663 0.439 1.061z"></path>
<path d="M2.5 29c-0.663-0.001-1.298-0.264-1.767-0.733s-0.732-1.104-0.733-1.767v-19.5c0.001-0.928 0.37-1.817 1.026-2.474s1.546-1.025 2.474-1.026h2v1h-2c-0.663 0.001-1.298 0.264-1.767 0.733s-0.732 1.104-0.733 1.767v19.5c0 0.398 0.158 0.779 0.439 1.061s0.663 0.439 1.061 0.439v1z"></path>
<path d="M22 28h1v1h-1v-1z"></path>
<path d="M27.5 29h-3.5v-1h3.5c0.866 0 1.5-0.7 1.5-1v-5.5h1v5.5c0 0.9-1.154 2-2.5 2z"></path>
<path d="M30.5 22h-7c-0.398 0-0.779-0.158-1.061-0.439s-0.439-0.663-0.439-1.061v-3c0-0.398 0.158-0.779 0.439-1.061s0.663-0.439 1.061-0.439h5.5v-6h1v4.5h0.5c0.398 0 0.779 0.158 1.061 0.439s0.439 0.663 0.439 1.061v4.5c0 0.398-0.158 0.779-0.439 1.061s-0.663 0.439-1.061 0.439zM23.5 17c-0.133 0-0.26 0.053-0.354 0.146s-0.146 0.221-0.146 0.354v3c0 0.133 0.053 0.26 0.146 0.354s0.221 0.146 0.354 0.146h7c0.133 0 0.26-0.053 0.354-0.146s0.146-0.221 0.146-0.354v-4.5c0-0.133-0.053-0.26-0.146-0.354s-0.221-0.146-0.354-0.146h-0.5v1c0 0.133-0.053 0.26-0.146 0.354s-0.221 0.146-0.354 0.146h-6z"></path>
<path d="M25 20.5c-0.297 0-0.587-0.088-0.833-0.253s-0.439-0.399-0.552-0.673c-0.114-0.274-0.143-0.576-0.085-0.867s0.201-0.558 0.411-0.768 0.477-0.353 0.768-0.41c0.291-0.058 0.593-0.028 0.867 0.085s0.508 0.306 0.673 0.552c0.165 0.247 0.253 0.537 0.253 0.833 0 0.398-0.158 0.779-0.439 1.061s-0.663 0.439-1.061 0.439zM25 18.5c-0.099 0-0.195 0.029-0.278 0.084s-0.146 0.133-0.184 0.224c-0.038 0.091-0.048 0.192-0.029 0.289s0.067 0.186 0.137 0.256 0.159 0.118 0.256 0.137c0.097 0.019 0.198 0.009 0.289-0.029s0.169-0.102 0.224-0.184c0.055-0.082 0.084-0.179 0.084-0.278 0-0.133-0.053-0.26-0.146-0.354s-0.221-0.146-0.354-0.146z"></path>
<path d="M29.668 13.574l-0.335-0.942 1.53-0.544-3.85-10.95-16.413 5.833-0.335-0.942 16.885-6c0.062-0.022 0.128-0.032 0.194-0.028s0.13 0.020 0.19 0.048c0.059 0.028 0.113 0.068 0.157 0.117s0.078 0.106 0.1 0.168l4.182 11.892c0.044 0.125 0.037 0.262-0.020 0.382s-0.159 0.211-0.284 0.256l-2 0.71z"></path>
<path d="M8.331 6.713l1-0.355 0.335 0.942-1 0.355-0.335-0.942z"></path>
<path d="M4.167 9.166l-0.138-0.392c-0.044-0.125-0.037-0.262 0.020-0.382s0.159-0.211 0.284-0.256l3.118-1.107 0.335 0.942-3.118 1.108-0.029-0.079-0.473 0.166z"></path>
<path d="M9.406 9.453l-0.335-0.942 14.562-5.173c0.125-0.044 0.263-0.037 0.383 0.020 0.059 0.028 0.112 0.068 0.156 0.117s0.078 0.106 0.1 0.168c0.062 0.179 0.159 0.343 0.286 0.484s0.279 0.255 0.45 0.337c0.169 0.081 0.352 0.128 0.539 0.138s0.374-0.018 0.55-0.081c0.062-0.022 0.128-0.032 0.193-0.028s0.13 0.020 0.19 0.048c0.059 0.028 0.113 0.068 0.157 0.117s0.078 0.106 0.1 0.168l1.41 4.008-0.943 0.332-1.261-3.584c-0.468 0.062-0.945-0.014-1.371-0.218s-0.784-0.528-1.029-0.932l-14.136 5.022z"></path>
<path d="M19.5 32h-16c-0.398 0-0.779-0.158-1.061-0.439s-0.439-0.663-0.439-1.061v-10c0-0.398 0.158-0.779 0.439-1.061s0.663-0.439 1.061-0.439h16c0.398 0 0.779 0.158 1.061 0.439s0.439 0.663 0.439 1.061v10c0 0.398-0.158 0.779-0.439 1.061s-0.663 0.439-1.061 0.439zM3.5 20c-0.133 0-0.26 0.053-0.354 0.146s-0.146 0.221-0.146 0.354v10c0 0.133 0.053 0.26 0.146 0.354s0.221 0.146 0.354 0.146h16c0.133 0 0.26-0.053 0.354-0.146s0.146-0.221 0.146-0.354v-10c0-0.133-0.053-0.26-0.146-0.354s-0.221-0.146-0.354-0.146h-16z"></path>
<path d="M3 22h17v1h-17v-1z"></path>
<path d="M3 23.5h17v1h-17v-1z"></path>
<path d="M2.67 7.471l-0.34-0.94 18-6.5c0.116-0.042 0.243-0.041 0.357 0.005s0.208 0.132 0.263 0.242l1 2-0.895 0.447-0.8-1.6-17.585 6.346z"></path>
</symbol>
</defs>
</svg>
