<svg width="911" height="800" viewBox="0 0 911 800" fill="none" xmlns="http://www.w3.org/2000/svg">
<path d="M591.093 439.479C589.466 432.722 592.132 423.884 593.806 415.096C595.096 408.29 597.098 401.035 594.091 394.969C587.758 382.197 574.887 379.214 562.23 373.804C549.8 368.492 539.109 381.293 526.35 382.46C513.402 383.648 505.026 379.054 494.133 386.258C483.008 393.613 475.369 390.97 471.28 404.773C469.969 409.196 470.217 413.392 470.697 417.238C471.763 425.727 475.401 432.917 472.908 441.052C471.521 445.564 467.428 450.934 464.955 457.43C460.156 470.052 454.602 483.428 460.342 492.125C468.098 503.87 490.009 501.325 503.505 508.058C516.178 514.38 522.102 501.081 534.473 500.943C548.267 500.806 557.34 506.302 568.161 498.214M429.612 374.494C428.892 377.849 429.152 381.027 429.343 383.863C429.766 390.075 431.184 395.079 428.469 400.542C426.867 403.756 423.422 407.407 421.821 412.198C418.65 421.661 415.325 431.613 419.739 438.3C425.481 446.99 441.93 443.472 451.914 448.449C461.03 452.992 465.471 444.311 474.078 444.435C484.071 444.578 490.361 448.165 497.96 442.142C504.856 436.677 517.694 433.373 522.575 423.574C529.042 410.585 517.354 407.113 514.522 398.713C512.976 394.116 513.894 388.085 514.361 381.713C514.704 377.021 516.124 371.606 514.084 366.913M449.691 365.9C443.192 370.195 440.874 370.87 439.585 379.391C439.155 382.218 439.421 384.873 439.466 387.211C439.569 392.28 439.829 396.19 437.046 400.321C435.309 402.888 432.218 405.682 431.046 409.618C428.694 417.51 426.48 425.745 430.232 431.427C434.959 438.592 448.671 434.581 456.905 438.686C464.244 442.348 467.946 435.979 474.698 436.232C482.791 436.528 487.694 439.158 493.678 434.166C499.007 429.726 508.844 426.77 512.851 418.729C518.476 407.425 509.845 404.925 507.049 398.388C505.546 394.871 505.601 390.266 505.448 385.074C505.343 381.452 506.454 376.947 504.896 372.933M654.32 7.83933C732.78 46.9648 828.196 39.7838 873.287 108.052C919.804 178.485 801.487 303.378 806.729 387.632C811.812 469.298 941.781 510.181 902.675 588.68C863.569 667.178 734.119 684.399 665.884 729.512C595.486 776.052 535.008 735.161 450.788 740.403C369.163 745.488 335.761 843.96 257.294 804.833C178.834 765.707 55.8437 750.165 10.7529 681.897C-35.7642 611.463 99.5094 468.895 94.2676 384.64C89.1869 302.968 2.14158 237.632 41.2477 159.133C80.3538 80.6345 153.092 123.757 221.333 78.6466C291.732 32.1065 343.484 68.8818 427.697 63.6374C509.327 58.5611 575.86 -31.2861 654.32 7.83933ZM262.285 795.07C185.575 756.816 65.3212 741.766 21.2384 675.022C-8.41832 630.112 37.3937 555.255 71.4767 485.747C89.6751 448.636 104.569 413.083 102.835 384.424C99.4645 329.217 57.7802 281.65 45.0471 232.138C39.3831 210.099 39.45 187.675 51.2067 164.026C89.3748 87.2712 160.351 129.305 227.042 85.2163C295.831 39.7396 346.411 75.6448 428.698 70.5133C508.469 65.5339 573.496 -22.2329 650.174 15.9793C726.859 54.1937 820.036 47.2881 864.08 114.057C884.392 144.858 872.539 186.283 853.684 230.014C830.404 284.117 796.382 341.771 799.239 387.286C804.268 467.075 931.199 507 892.933 583.821C854.701 660.562 728.247 677.425 661.579 721.513C592.797 767.015 533.697 727.085 451.389 732.187C371.633 737.148 338.97 833.307 262.285 795.07ZM267.276 785.306C192.32 747.934 74.7988 733.367 31.7287 668.156C2.73489 624.251 47.4307 551.102 80.699 483.173C98.4616 446.915 113.043 412.187 111.41 384.209C108.193 330.302 67.5737 283.859 55.1655 235.499C49.6456 213.965 49.7036 192.049 61.1681 168.934C98.3961 93.9305 167.604 134.873 232.753 91.8019C299.932 47.3887 349.34 82.4237 429.704 77.3983C507.611 72.5295 571.125 -13.1593 646.021 24.1396C720.93 61.4431 811.876 54.8151 854.876 120.079C874.708 150.194 863.14 190.67 844.764 233.373C822.1 286.219 788.931 342.519 791.758 386.958C796.725 464.853 920.617 503.819 883.184 578.96C845.835 653.939 722.369 670.448 657.272 713.521C590.098 757.989 532.392 719.018 451.984 723.968C374.098 728.798 342.183 822.662 267.276 785.306ZM272.266 775.544C199.068 739.046 84.2764 724.97 42.2144 661.282C13.8835 618.382 57.47 546.943 89.9167 480.592C107.243 445.186 121.517 411.292 119.98 383.986C116.908 331.384 77.3671 286.07 65.2815 238.845C59.9057 217.816 59.9548 196.407 71.1273 173.827C107.415 100.575 174.856 140.418 238.464 98.3654C304.034 55.0156 352.269 89.1805 430.708 84.268C506.753 79.5029 568.76 -4.10553 641.872 32.287C715.002 68.6703 803.714 62.3268 845.666 126.092C865.019 155.522 853.736 195.049 835.832 236.722C813.789 288.319 781.478 343.253 784.261 386.61C789.188 462.634 910.04 500.648 873.446 574.111C836.967 647.323 716.488 663.479 652.965 705.53C587.407 748.96 531.088 710.946 452.583 715.76C376.568 720.459 345.392 812.01 272.266 775.544ZM277.257 765.78C205.816 730.157 93.7539 716.57 52.7045 654.416C25.0365 612.521 67.5069 542.79 99.1389 478.018C116.03 443.465 129.995 410.406 128.548 383.769C125.62 332.472 87.1535 288.276 75.3882 242.194C70.1567 221.67 70.2037 200.771 81.0794 178.717C116.427 107.215 182.102 145.961 244.166 104.932C308.133 62.6481 355.19 95.9406 431.705 91.1342C505.889 86.4728 566.387 4.9516 637.712 40.4217C709.066 75.8941 795.54 69.8258 836.448 132.085C855.313 160.828 844.329 199.411 826.897 240.053C805.471 290.392 774.016 343.966 776.766 386.255C781.638 460.408 899.453 497.458 863.693 569.241C828.101 640.699 710.61 656.502 648.658 697.537C584.707 739.933 529.775 702.876 453.175 707.548C379.039 712.111 348.607 801.358 277.257 765.78ZM282.248 756.018C212.564 721.269 103.232 708.172 63.1902 647.542C36.1851 606.652 77.5393 538.628 108.357 475.436C124.814 441.729 138.469 409.511 137.116 383.552C134.342 333.556 96.9446 290.493 85.502 245.547C80.4145 225.528 80.4549 205.129 91.0363 183.617C125.443 113.866 189.353 151.513 249.873 111.509C312.23 70.2887 358.123 102.706 432.704 98.0175C505.026 93.4599 564.018 14.0191 633.558 48.5828C703.131 83.1419 787.373 77.3513 827.241 138.114C845.626 166.171 834.927 203.807 817.973 243.426C797.169 292.511 766.57 344.724 769.276 385.932C774.094 458.187 888.869 494.285 853.951 564.383C819.235 634.077 704.741 649.521 644.359 689.541C582.026 730.899 528.479 694.805 453.776 699.332C381.509 703.771 351.823 790.707 282.248 756.018ZM287.241 746.248C219.314 712.373 112.711 699.767 73.6781 640.66C47.3428 600.778 87.5809 534.462 117.574 472.854C133.596 439.999 146.996 408.617 145.686 383.329C143.164 334.635 106.731 292.701 95.618 248.892C90.6747 229.378 90.7063 209.487 101.002 188.512C134.463 120.51 196.61 157.068 255.592 118.074C316.341 77.9104 361.06 109.465 433.715 104.889C504.175 100.435 561.661 23.0746 629.41 56.7296C697.207 90.3777 779.218 84.8647 818.034 144.12C835.939 171.492 825.445 208.144 809.043 246.767C788.757 294.547 759.113 345.448 761.786 385.586C766.558 455.966 878.294 491.106 844.206 559.531C810.365 627.467 698.867 642.554 640.059 681.551C579.333 721.875 527.18 686.741 454.385 691.118C383.981 695.424 355.031 780.054 287.241 746.248ZM292.225 736.483C226.052 703.49 122.189 691.368 84.1616 633.792C58.4892 594.916 97.6089 530.314 126.797 470.28C142.382 438.279 155.483 407.727 154.254 383.112C151.894 335.714 116.525 294.911 105.725 252.242C100.926 233.233 100.948 213.849 110.952 193.409C143.472 127.158 203.854 162.617 261.285 124.647C320.424 85.546 363.971 116.23 434.703 111.76C503.302 107.41 559.278 32.137 625.245 64.8788C691.267 97.6159 771.042 92.3713 808.816 150.137C826.237 176.814 816.019 212.523 800.109 250.121C780.419 296.637 751.658 346.187 754.287 385.244C759.014 453.744 867.703 487.93 834.457 554.671C801.492 620.842 692.989 635.577 635.745 673.557C576.636 712.843 525.86 678.67 454.97 682.905C386.444 687.081 358.247 769.403 292.225 736.483ZM297.216 726.719C232.8 694.601 131.667 682.97 94.6474 626.917C69.6355 589.053 107.648 526.154 136.015 467.698C151.164 436.549 163.964 406.834 162.824 382.889C160.632 336.795 126.311 297.118 115.841 255.587C111.186 237.083 111.207 218.209 120.914 198.295C152.494 133.795 211.116 168.158 266.996 131.209C324.526 93.1723 366.9 122.987 435.707 118.629C502.442 114.39 556.914 41.1902 621.092 73.0164C685.332 104.84 762.875 99.8733 799.605 156.134C816.545 182.125 806.598 216.881 791.175 253.453C772.087 298.707 744.196 346.902 746.786 384.887C751.46 451.511 857.112 484.731 824.697 549.798C792.615 614.207 687.099 628.589 631.429 665.547C573.927 703.799 524.547 670.578 455.56 674.677C388.916 678.734 361.454 758.756 297.216 726.719ZM302.207 716.956C239.548 685.712 141.144 674.571 105.137 620.052C80.7885 583.192 117.685 522.001 145.237 465.125C159.953 434.821 172.452 405.942 171.397 382.681C169.365 337.89 136.109 299.337 125.959 258.949C121.448 240.949 121.46 222.582 130.875 203.203C161.515 140.454 218.37 173.719 272.71 137.788C328.636 100.817 369.832 129.759 436.715 125.508C501.588 121.372 554.552 50.2592 616.948 81.1722C679.412 112.085 754.724 107.396 790.4 162.155C806.86 187.462 797.192 221.266 782.254 256.812C763.769 300.804 736.754 347.645 739.307 384.552C743.93 449.293 846.542 481.562 814.968 544.944C783.76 607.595 681.241 621.619 627.142 657.562C571.257 694.775 523.262 662.518 456.175 666.466C391.386 670.393 364.669 748.105 302.207 716.956ZM307.197 707.194C246.296 676.824 150.622 666.173 115.623 613.177C91.9441 577.325 127.718 517.84 154.455 462.543C168.735 433.092 180.933 405.05 179.96 382.455C178.096 338.969 145.896 301.544 136.068 262.292C131.702 244.798 131.705 226.938 140.828 208.094C170.527 147.096 225.616 179.262 278.412 144.356C332.729 108.448 372.752 136.52 437.71 132.382C500.722 128.349 552.171 59.315 612.783 89.3215C673.466 119.321 746.546 114.909 781.182 168.172C797.162 192.793 787.765 225.645 773.311 260.171C755.428 302.902 729.283 348.387 731.797 384.222C736.38 447.068 835.953 478.379 805.22 540.084C774.888 600.97 675.356 614.641 622.828 649.568C568.557 685.75 521.942 654.448 456.76 658.252C393.856 662.053 367.878 737.451 307.197 707.194ZM312.188 697.43C253.037 667.933 160.1 657.774 126.109 606.302C103.093 571.455 137.757 513.68 163.67 459.967C177.515 431.369 189.413 404.156 188.528 382.238C186.831 340.057 155.682 303.751 146.175 265.642C141.953 248.652 141.947 231.3 150.787 212.986C179.546 153.739 232.867 184.814 284.121 150.925C336.828 116.081 375.681 143.276 438.714 139.25C499.871 135.324 549.807 68.3679 608.637 97.4612C667.546 126.543 738.386 122.413 771.977 174.171C787.471 198.104 778.352 230.005 764.391 263.507C747.111 304.976 721.842 349.108 724.318 383.864C728.839 444.839 825.371 475.198 795.471 535.223C766.015 594.344 669.478 607.664 618.523 641.569C565.862 676.71 520.639 646.374 457.362 650.036C396.328 653.706 371.093 726.8 312.188 697.43ZM317.181 687.661C259.786 659.038 169.582 649.362 136.601 599.43C114.248 565.589 147.796 509.52 172.895 457.387C186.303 429.642 197.901 403.266 197.105 382.017C195.568 341.138 165.482 305.964 156.298 268.99C152.226 252.508 152.211 235.663 160.753 217.881C188.571 160.385 240.126 190.362 289.839 157.491C340.936 123.71 378.624 150.037 439.724 146.122C499.02 142.3 547.447 77.4307 604.488 105.608C661.615 133.777 730.223 129.925 762.768 180.184C777.781 203.432 768.936 234.372 755.459 266.855C738.781 307.062 714.381 349.839 716.819 383.523C721.286 442.622 814.782 472.016 785.721 530.362C757.147 587.728 663.597 600.695 614.215 633.577C563.169 667.687 519.333 638.308 457.954 641.825C398.798 645.366 374.302 716.147 317.181 687.661ZM322.172 677.898C266.532 650.156 179.059 640.963 147.087 592.555C125.397 559.719 157.826 505.365 182.119 454.807C195.094 427.907 206.391 402.368 205.673 381.801C204.304 342.227 175.269 308.171 166.412 272.342C162.484 256.365 162.46 240.027 170.709 222.78C197.588 167.036 247.377 195.914 295.546 164.068C345.033 131.35 381.549 156.807 440.726 152.998C498.157 149.286 545.081 86.4908 600.33 113.76C655.682 141.017 722.059 137.443 753.559 186.196C768.092 208.759 759.525 238.749 746.534 270.205C730.452 309.148 706.935 350.574 709.336 383.18C713.752 440.395 804.208 468.837 775.982 525.497C748.283 581.098 657.728 593.714 609.913 625.571C560.476 658.641 518.027 630.218 458.56 633.595C401.263 637.016 377.518 705.496 322.172 677.898ZM327.163 668.135C273.28 641.267 188.537 632.564 157.577 585.689C136.55 553.858 167.87 501.215 191.342 452.234C203.881 426.187 214.876 401.484 214.247 381.586C213.046 343.317 185.067 310.39 176.525 275.694C172.742 260.222 172.71 244.391 180.666 227.68C206.605 173.686 254.627 201.466 301.253 170.644C349.137 138.992 384.474 163.576 441.725 159.881C497.295 156.273 542.71 95.5643 596.179 121.913C649.756 148.26 713.894 144.961 744.347 192.215C758.394 214.091 750.105 243.129 737.605 273.569C722.125 311.25 699.478 351.32 701.839 382.854C706.204 438.186 793.621 465.67 766.233 520.659C739.411 574.496 651.85 586.76 605.606 617.602C557.786 649.633 516.721 622.174 459.152 625.406C403.733 628.676 380.726 694.842 327.163 668.135ZM332.147 658.369C280.02 632.376 198.007 624.164 168.056 578.813C147.698 547.989 177.895 497.051 200.552 449.649C212.655 424.455 223.352 400.582 222.811 381.36C221.769 344.394 194.849 312.588 186.634 279.037C182.995 264.07 182.954 248.747 190.621 232.563C215.621 180.314 261.882 207.004 306.959 177.198C353.234 146.61 387.398 170.324 442.726 166.734C496.435 163.23 540.343 104.602 592.021 130.042C643.816 155.475 705.723 152.454 735.131 198.203C748.698 219.393 740.68 247.479 728.666 276.892C713.788 313.311 691.947 352.035 694.342 382.483C698.543 435.948 783.032 462.465 756.479 515.766C730.538 567.848 645.967 579.752 601.294 609.578C555.081 640.576 515.41 614.076 459.74 617.163C406.204 620.329 383.939 684.198 332.147 658.369ZM337.138 648.607C286.768 623.488 207.485 615.765 178.542 571.938C158.847 542.12 187.928 492.889 209.77 447.067C221.437 422.725 231.833 399.689 231.374 381.135C230.502 345.466 204.635 314.796 196.744 282.38C193.249 267.918 193.173 253.087 200.58 237.456C224.535 186.907 269.132 212.556 312.668 183.768C357.335 154.236 390.325 177.087 443.728 173.61C495.575 170.21 537.974 113.669 587.87 138.196C637.89 162.718 697.558 159.972 725.926 204.225C739.013 224.729 731.274 251.864 719.745 280.251C705.47 315.408 684.499 352.776 686.854 382.153C690.995 433.74 772.455 459.293 746.739 510.924C721.674 561.24 640.098 572.793 596.991 601.595C552.395 631.555 514.102 606.016 460.345 608.956C408.674 611.989 387.155 673.547 337.138 648.607ZM342.128 638.844C293.516 614.599 216.969 607.369 189.032 565.072C170 536.259 197.972 488.739 218.99 444.501C230.224 421.005 240.316 398.812 239.946 380.927C239.235 346.561 214.426 317.012 206.862 285.741C203.511 271.784 203.426 257.46 210.541 242.364C233.549 193.564 276.387 218.118 318.38 190.354C361.437 161.885 393.254 183.866 444.734 180.495C494.719 177.198 535.612 122.738 583.719 146.349C631.956 169.959 689.4 167.492 716.717 210.237C729.324 230.056 721.856 256.238 710.813 283.599C697.141 317.494 677.037 353.513 679.362 381.814C683.445 431.515 761.871 456.119 736.997 506.066C712.806 554.624 634.226 565.819 592.69 593.606C549.702 622.531 512.801 597.845 460.944 600.747C411.135 603.539 390.363 662.894 342.128 638.844ZM347.119 629.081C300.261 605.718 226.447 598.971 199.517 558.198C181.148 530.39 208.004 484.577 228.208 441.919C239.005 419.275 248.799 397.912 248.514 380.711C247.968 347.656 224.217 319.229 216.969 289.092C213.762 275.64 213.669 261.823 220.491 247.262C242.552 200.21 283.631 223.667 324.082 196.921C365.529 169.516 396.177 190.62 445.729 187.369C493.852 184.176 533.232 131.794 579.561 154.501C626.023 177.199 681.229 175.008 707.505 216.257C719.625 235.388 712.436 260.619 701.886 286.956C688.816 319.589 669.582 354.253 671.87 381.475C675.893 429.297 751.289 452.939 727.248 501.205C703.94 548.001 628.341 558.84 588.386 585.607C547.014 613.494 511.493 589.762 461.546 592.531C413.607 595.192 393.579 652.243 347.119 629.081ZM352.112 619.311C307.012 596.822 235.927 590.565 210.003 551.323C192.304 524.523 218.041 480.424 237.432 439.339C247.794 417.548 257.287 397.021 257.085 380.487C256.706 348.737 234.006 321.43 227.085 292.437C224.022 279.49 223.922 266.173 230.453 252.148C251.567 206.845 290.886 229.206 329.794 203.484C369.638 177.145 399.107 197.376 446.726 194.236C492.999 191.158 530.872 140.856 575.413 162.648C620.095 184.426 673.067 182.519 698.296 222.269C709.936 240.715 703.018 264.993 692.952 290.31C680.478 321.68 662.12 354.99 664.375 381.142C668.338 427.087 740.709 449.774 717.502 496.36C695.07 541.392 622.465 551.88 584.074 577.629C544.31 604.482 510.178 581.7 462.134 584.333C416.072 586.842 396.788 641.589 352.112 619.311ZM357.103 609.548C313.752 587.931 245.405 582.167 220.496 544.451C203.459 518.655 228.08 476.265 246.657 436.759C256.583 415.82 265.774 396.13 265.661 380.266C265.443 349.819 243.806 323.642 237.208 295.785C234.289 283.342 234.18 270.533 240.419 257.042C260.585 213.488 298.143 234.76 335.509 210.056C373.743 184.78 402.047 204.144 447.736 201.107C492.135 198.129 528.501 149.907 571.259 170.786C614.166 191.653 664.9 190.021 689.085 228.266C700.247 246.02 693.604 269.354 684.025 293.644C672.152 323.752 654.662 355.714 656.883 380.78C660.787 424.839 730.127 446.571 707.753 491.477C686.195 534.75 616.587 544.881 579.769 569.607C541.622 595.422 508.876 573.597 462.73 576.085C418.546 578.488 400.003 630.938 357.103 609.548ZM362.094 599.785C320.5 579.043 254.882 573.768 230.979 537.583C214.605 512.793 238.111 472.11 255.872 434.183C265.363 414.097 274.255 395.237 274.229 380.049C274.179 350.907 253.591 325.856 247.314 299.134C244.54 287.197 244.422 274.896 250.375 261.942C269.595 220.136 305.4 240.314 341.218 216.626C377.843 192.414 404.974 210.907 448.738 207.983C491.275 205.108 526.132 158.974 567.102 178.937C608.233 198.893 656.735 197.539 679.873 234.285C690.549 251.351 684.184 273.734 675.098 297.001C663.828 325.847 647.207 356.453 649.395 380.45C653.239 422.631 719.548 443.406 698.015 486.627C677.334 528.136 610.72 537.915 575.473 561.627C538.933 586.408 507.578 565.533 463.341 567.888C421.011 570.139 403.21 620.292 362.094 599.785ZM367.078 590.02C327.241 570.152 264.353 565.367 241.465 530.708C225.754 506.923 248.15 467.95 265.088 431.608C274.144 412.368 282.733 394.351 282.788 379.837C282.905 351.999 263.375 328.07 257.419 302.491C254.789 291.059 254.655 279.262 260.326 266.839C278.598 226.782 312.644 245.864 346.918 223.2C381.94 200.054 407.901 217.67 449.739 214.859C490.415 212.088 523.765 168.034 562.95 187.091C602.3 206.133 648.57 205.058 670.664 240.298C680.859 256.679 674.766 278.109 666.166 300.349C655.498 327.933 639.747 357.184 641.898 380.102C645.689 420.406 708.961 440.217 688.259 481.764C668.461 521.511 604.789 530.868 571.152 553.63C536.177 577.302 506.253 557.453 463.919 559.672C423.483 561.792 406.425 609.641 367.078 590.02ZM372.068 580.257C333.986 561.27 273.83 556.969 251.95 523.833C236.909 501.056 258.109 463.756 274.305 429.025C282.887 410.618 291.214 393.458 291.358 379.613C291.635 353.078 273.161 330.278 267.535 305.837C265.049 294.91 264.906 283.62 270.284 271.732C287.612 233.417 319.896 251.409 352.627 229.77C386.032 207.685 410.819 224.438 450.734 221.733C489.554 219.068 521.389 177.099 558.788 195.233C596.362 213.365 640.394 212.564 661.441 246.306C671.156 262.001 665.335 282.478 657.225 303.701C647.16 330.024 632.276 357.925 634.397 379.767C638.127 418.193 698.368 437.047 678.508 476.91C659.584 514.899 598.904 523.889 566.844 545.638C533.479 568.27 504.95 549.379 464.52 551.456C425.948 553.442 409.634 598.987 372.068 580.257ZM377.059 570.494C340.734 552.382 283.308 548.57 262.434 516.965C248.056 495.193 268.139 459.601 283.521 426.45C291.667 408.895 299.693 392.571 299.926 379.397C300.368 354.173 282.955 332.487 277.649 309.189C275.307 298.767 275.156 287.985 280.242 276.631C296.622 240.065 327.147 256.962 358.337 236.34C390.138 215.32 413.748 231.194 451.738 228.602C488.697 226.041 519.025 186.152 554.639 203.38C590.432 220.598 632.239 220.078 652.241 252.314C661.47 267.321 655.933 286.85 648.302 307.044C638.84 332.105 624.825 358.651 626.909 379.414C630.582 415.955 687.791 433.853 668.764 472.036C650.716 508.26 593.03 516.899 562.542 537.632C530.786 559.223 503.644 541.29 465.117 543.231C428.421 545.095 412.85 588.336 377.059 570.494ZM382.052 560.724C347.484 543.486 292.788 540.165 272.928 510.086C259.213 489.319 278.181 455.435 292.754 423.865C300.465 407.163 308.189 391.676 308.505 379.169C309.115 355.25 292.757 334.693 287.767 312.527C285.569 302.61 285.409 292.336 290.21 281.519C305.643 246.702 334.406 262.509 364.055 242.905C394.246 222.949 416.684 237.952 452.748 235.474C487.843 233.023 516.668 195.208 550.491 211.527C584.508 227.834 624.143 227.55 643.032 258.326C651.81 272.628 646.515 291.224 639.377 310.394C630.515 334.2 617.372 359.384 619.424 379.077C623.036 413.739 677.213 430.682 659.026 467.187C641.861 501.648 587.157 509.932 558.241 529.643C528.102 550.196 502.34 533.217 465.716 535.022C430.895 536.741 416.065 577.685 382.052 560.724ZM387.043 550.961C354.232 534.598 302.266 531.766 283.412 503.218C270.36 483.457 288.211 451.28 301.97 421.29C309.244 405.44 316.67 390.783 317.071 378.959C317.841 356.343 302.541 336.907 297.878 315.886C295.832 306.477 295.656 296.707 300.167 286.419C314.653 253.35 341.657 268.061 369.762 249.482C398.346 230.582 419.609 244.722 453.75 242.35C486.984 240.003 514.292 204.272 546.342 219.674C578.584 235.07 615.983 235.054 633.823 264.339C642.121 277.955 637.097 295.598 630.445 313.742C622.178 336.284 609.91 360.121 611.927 378.729C615.479 411.512 666.627 427.492 649.28 462.319C632.989 495.023 581.274 502.946 553.937 521.644C525.408 541.156 501.039 525.136 466.318 526.805C433.36 528.391 419.274 567.031 387.043 550.961ZM392.034 541.198C360.98 525.709 311.75 523.37 293.904 496.346C281.515 477.589 298.248 447.127 311.194 418.71C318.028 403.703 325.157 389.892 325.648 378.737C326.583 357.433 312.3 339.128 308.001 319.234C306.074 310.336 305.914 301.067 310.132 291.313C323.672 259.993 348.916 273.609 375.48 256.047C402.454 238.211 422.552 251.483 454.76 249.221C486.133 246.978 511.934 213.328 542.193 227.82C572.655 242.297 607.827 242.568 624.622 270.347C632.441 283.278 627.693 299.976 621.527 317.094C613.86 338.381 602.464 360.856 604.448 378.394C607.947 409.302 656.056 424.322 639.542 457.47C624.127 488.409 575.409 495.974 549.643 513.656C522.721 532.135 499.742 517.065 466.926 518.592C435.832 520.044 422.487 556.387 392.034 541.198ZM397.025 531.435C367.725 516.828 321.227 514.972 304.39 489.471C292.67 471.722 308.28 442.965 320.41 416.135C326.808 401.981 333.636 389.006 334.215 378.521C335.309 358.526 322.087 341.336 318.108 322.584C316.324 314.191 316.156 305.429 320.082 296.211C332.674 266.64 356.166 279.161 381.179 262.621C406.544 245.849 425.47 258.251 455.755 256.095C485.266 253.955 509.559 222.393 538.035 235.972C566.722 249.537 599.656 250.084 615.404 276.364C622.742 288.61 618.266 304.355 612.586 320.447C605.522 340.472 594.995 361.591 596.942 378.051C600.38 407.08 645.461 421.138 629.786 452.607C615.252 481.791 569.517 488.993 545.329 505.663C520.017 523.1 498.431 508.99 467.518 510.38C438.297 511.695 425.696 545.734 397.025 531.435ZM402.015 521.672C374.473 507.939 330.705 506.573 314.873 482.603C303.816 465.86 318.31 438.81 329.625 413.559C335.587 400.258 342.112 388.127 342.777 378.302C344.035 359.619 331.864 343.548 328.215 325.934C326.575 318.046 326.398 309.792 330.032 301.108C341.677 273.286 363.41 284.711 386.879 269.196C410.641 253.489 428.388 265.019 456.747 262.976C484.396 260.94 507.183 231.457 533.87 244.121C560.775 256.773 591.484 257.599 606.188 282.374C613.046 293.935 608.841 308.727 603.654 323.794C597.19 342.565 587.533 362.328 589.45 377.712C592.828 404.862 634.877 417.964 620.037 447.746C606.379 475.165 563.639 482.017 541.015 497.668C517.313 514.066 497.114 500.912 468.103 502.167C440.769 503.348 428.911 535.083 402.015 521.672ZM406.999 511.906C381.207 499.046 340.178 498.165 325.359 475.728C314.965 459.99 328.343 434.648 338.843 410.977C344.369 398.528 350.593 387.233 351.345 378.085C352.768 360.713 341.655 345.764 338.329 329.286C336.833 321.903 336.647 314.156 339.999 306.002C350.696 279.929 370.668 290.265 392.598 275.761C414.75 261.117 431.327 271.77 457.76 269.84C483.548 267.908 504.828 240.506 529.731 252.263C554.861 264.004 583.333 265.099 596.988 288.382C603.362 299.248 599.437 313.105 594.739 327.139C588.874 344.655 580.089 363.056 581.969 377.361C585.294 402.635 624.306 414.771 610.304 442.883C597.523 468.537 557.77 475.035 536.726 489.667C514.634 505.023 495.829 492.829 468.716 493.939C443.234 494.998 432.12 524.429 406.999 511.906ZM411.992 502.137C387.957 490.151 349.658 489.76 335.844 468.854C326.113 454.121 338.375 430.487 348.061 408.395C353.153 396.792 359.073 386.341 359.914 377.862C361.497 361.8 351.444 347.965 348.444 332.632C347.093 325.754 346.898 318.514 349.957 310.895C359.708 286.57 377.92 295.81 398.307 282.331C418.849 268.751 434.253 278.533 458.762 276.716C482.685 274.895 502.436 249.619 525.573 260.415C548.902 271.298 575.169 272.617 587.772 294.392C593.665 304.573 590.012 317.478 585.8 330.485C580.536 346.746 572.62 363.791 574.463 377.017C577.729 400.406 613.708 411.593 600.541 438.018C588.634 461.914 551.877 468.055 532.405 481.671C511.922 495.987 494.505 484.749 469.301 485.726C445.706 486.651 435.335 513.778 411.992 502.137ZM416.983 492.374C394.705 481.262 359.135 481.361 346.337 461.981C337.276 448.255 348.414 426.327 357.292 405.817C361.942 395.064 367.573 385.461 368.492 377.64C370.232 362.888 361.244 350.177 358.56 335.977C357.354 329.604 357.149 322.871 359.917 315.788C368.725 293.221 385.173 301.355 404.016 288.9C422.948 276.384 437.18 285.296 459.763 283.592C481.825 281.874 500.067 258.685 521.424 268.561C542.971 278.531 567.006 280.128 578.57 300.407C583.983 309.902 580.606 321.863 576.88 333.844C572.216 348.85 565.172 364.533 566.984 376.683C570.19 398.193 603.14 408.417 590.813 433.164C579.789 455.298 546.015 461.076 528.113 473.676C509.239 486.959 493.217 476.673 469.91 477.512C448.178 478.304 438.544 503.125 416.983 492.374ZM421.974 482.611C401.45 472.38 368.613 472.963 356.82 455.113C348.422 442.393 358.442 422.179 366.505 403.248C370.719 393.348 376.047 384.589 377.057 377.431C378.96 363.997 371.029 352.391 368.672 339.336C367.609 333.468 367.396 327.243 369.873 320.687C377.735 299.869 392.423 306.907 409.725 295.47C427.047 284.017 440.107 292.06 460.767 290.461C480.968 288.847 497.701 267.746 517.269 276.706C537.041 285.765 558.844 287.639 569.356 306.411C574.289 315.22 571.181 326.235 567.943 337.183C563.879 350.933 557.705 365.261 559.481 376.332C562.633 395.966 592.545 405.232 581.057 428.301C570.909 448.67 540.13 454.097 523.799 465.682C506.541 477.926 491.9 468.595 470.504 469.294C450.643 469.955 441.76 492.474 421.974 482.611ZM426.965 472.848C408.198 463.492 378.091 464.564 367.306 448.239C359.571 436.523 368.475 418.017 375.723 400.666C379.501 391.619 384.518 383.7 385.627 377.207C387.684 365.096 380.815 354.598 378.788 342.681C377.869 337.318 377.654 331.603 379.833 325.58C386.754 306.513 399.68 312.462 415.434 302.04C431.153 291.653 443.041 298.825 461.769 297.337C480.108 295.827 495.327 276.804 513.118 284.86C531.108 293.005 550.679 295.158 560.144 312.43C564.598 320.554 561.766 330.625 559.016 340.54C555.55 353.042 550.25 366 551.995 375.995C555.092 393.76 581.97 402.054 571.315 423.443C562.041 442.054 534.259 447.123 519.501 457.686C503.853 468.889 490.605 460.517 471.106 461.078C453.116 461.607 444.966 481.827 426.965 472.848ZM431.956 463.085C414.946 454.603 387.568 456.166 377.799 441.366C370.726 430.656 378.514 413.858 384.948 398.086C388.29 389.891 393.003 382.816 394.195 376.99C396.401 366.193 390.608 356.808 388.892 346.038C388.118 341.18 387.894 335.972 389.787 330.486C395.761 313.168 406.929 318.021 421.138 308.623C435.248 299.299 445.964 305.602 462.768 304.22C479.252 302.816 492.956 285.877 508.958 293.018C525.172 300.252 542.513 302.682 550.931 318.456C554.904 325.895 552.348 335.022 550.079 343.901C547.209 355.162 542.79 366.753 544.492 375.667C547.528 391.553 571.374 398.891 561.559 418.602C553.169 435.452 528.367 440.164 515.18 449.712C501.14 459.882 489.281 452.46 471.684 452.884C455.588 453.26 448.182 471.176 431.956 463.085ZM436.947 453.322C421.694 445.714 397.053 447.769 388.282 434.498C381.873 424.793 388.542 409.709 394.163 395.51C397.072 388.162 401.477 381.943 402.763 376.773C405.114 367.304 400.393 359.022 399.006 349.39C398.376 345.037 398.143 340.336 399.744 335.386C404.776 319.825 414.179 323.573 426.848 315.193C439.35 306.926 448.893 312.358 463.769 311.096C478.392 309.796 490.589 294.937 504.809 301.165C519.248 307.488 534.35 310.194 541.724 324.462C545.21 331.213 542.935 339.405 541.155 347.251C538.88 357.271 535.337 367.486 537.009 375.324C539.992 389.333 560.801 395.706 551.82 413.737C544.305 428.822 522.498 433.183 510.882 441.715C498.452 450.844 487.987 444.382 472.292 444.671C458.06 444.913 451.397 460.525 436.947 453.322ZM490.418 483.235C478.677 477.383 459.498 480.411 452.748 470.197C447.671 462.505 452.108 450.836 456.1 439.796C458.137 434.153 461.913 429.644 463.398 425.774C466.011 418.974 463.47 412.881 462.733 405.529C462.398 402.188 462.14 398.5 463.159 394.612C466.315 382.562 472.182 384.104 481.763 377.774C491.045 371.633 498.249 375.357 509.272 374.282C520.169 373.219 529.353 362.499 540 366.904C550.881 371.403 561.511 374.668 566.802 385.928C569.329 391.309 567.612 397.638 566.795 403.39C565.723 410.962 563.926 418.399 565.523 424.08C568.404 434.346 583.132 438.793 575.826 453.459C570.068 465.023 554.238 468.671 545.767 475.166C536.561 482.223 528.877 477.676 516.985 477.678C506.496 477.674 501.317 488.668 490.418 483.235ZM493.319 434.166C486.842 430.936 475.859 435.436 472.138 429.802C469.057 425.128 470.161 418.603 471.684 412.286C472.427 409.205 475.14 407.252 477.03 405.345C479.834 402.523 480.778 399.73 480.996 395.804C481.095 393.971 480.834 391.828 480.961 389.524C481.341 382.773 481.868 380.983 486.816 377.711C491.276 374.763 494.958 375.867 500.207 375.124C505.527 374.374 510.191 369.895 515.466 371.568C521.02 373.318 524.93 377.446 527.096 384.184C528.167 387.511 527.424 391.14 527.932 393.663C528.75 397.728 529.53 400.852 530.968 403.28C533.75 407.962 539.313 409.479 534.512 419.107C531.381 425.384 524.536 427.995 520.776 431.404C516.404 435.371 512.894 433.7 506.702 433.252C501.841 432.898 498.876 436.938 493.319 434.166ZM471.158 430.984C466.438 428.627 458.185 433.618 455.472 429.508C453.051 425.846 453.067 421.038 453.75 416.284C454.071 414.06 456.364 412.889 458.449 411.702C461.237 410.117 463.431 408.509 463.953 405.728C464.203 404.402 463.94 402.768 463.761 400.995C463.256 396.013 461.962 393.107 465.369 390.852C468.218 388.967 470.731 389.195 474.052 388.571C477.503 387.923 480.67 385.52 484.161 386.286C487.948 387.12 489.593 391.537 490.733 396.761C491.314 399.407 491.048 402.152 491.846 403.575C493.485 406.497 494.962 408.146 496.322 409.506C499.135 412.308 501.575 412.869 497.615 420.813C495.365 425.334 491.524 427.612 489.321 429.978C486.573 432.932 484.453 432.234 480.147 431.608C477.168 431.18 474.939 432.867 471.158 430.984ZM508.958 401.88C517.944 406.358 518.385 401.919 513.91 410.91C509.435 419.9 511.173 420.646 502.19 416.162C499.224 414.688 493.704 420.161 492.003 417.584C490.245 414.927 489.216 411.843 489.013 408.652C488.822 405.565 498.633 406.989 500.114 404.024C501.589 401.057 494.548 394.074 497.123 392.372C499.779 390.614 502.862 389.584 506.051 389.381C509.128 389.195 505.992 400.406 508.958 401.88Z" stroke="url(#paint0_linear_3_13)" stroke-opacity="0.15" stroke-width="2" stroke-miterlimit="10"/>
<defs>
<linearGradient id="paint0_linear_3_13" x1="750" y1="570" x2="-467.5" y2="-343" gradientUnits="userSpaceOnUse">
<stop stop-color="#D2E5F1"/>
<stop offset="1" stop-color="#D2E5F1" stop-opacity="0"/>
</linearGradient>
</defs>
</svg>
