<svg id="Слой_1" data-name="Слой 1" xmlns="http://www.w3.org/2000/svg" viewBox="0 0 50 50">
<defs><style>.cls-1{fill:#8472b2;}.cls-2{fill:#fff;}.cls-3{opacity:0.4;}.cls-4{fill:#ededed;}</style>
</defs><ellipse class="cls-1" cx="25.58" cy="23.91" rx="15.7" ry="16"/>
<ellipse class="cls-1" cx="24.39" cy="27.55" rx="7.87" ry="7.55"/>
<path class="cls-2" d="M24.33,19.89a7.86,7.86,0,0,0-8,7.64,7.87,7.87,0,0,0,7.92,7.72h.08a7.85,7.85,0,0,0,8-7.68,7.84,7.84,0,0,0-7.9-7.68Zm-2,2.41c-.12,0-.16-.08-.16-.26a1,1,0,0,1,.5-.76A3,3,0,0,1,24,20.74a4.62,4.62,0,0,1,.82-.07,6.44,6.44,0,0,1,3.24,1,9.42,9.42,0,0,0-2-.22,7.75,7.75,0,0,0-1.79.21,16.57,16.57,0,0,0-1.8.61.58.58,0,0,1-.2,0ZM22.19,21c-.14.15-.24.25-.33.36a1,1,0,0,0-.18,1.07.25.25,0,0,1-.12.37c-.2.13-.4.27-.59.42a.24.24,0,0,1-.36,0c-.17-.15-.36-.28-.53-.44a.45.45,0,0,1,0-.72A6.6,6.6,0,0,1,22.19,21Zm9,4.4a8.57,8.57,0,0,0-4.85-1.9c-1-.16-2-.31-2.94-.48a4.06,4.06,0,0,1-.7-.23l.17-.12a9.06,9.06,0,0,1,3.37-.72,6.8,6.8,0,0,1,1.71.22A4.54,4.54,0,0,1,31,25c0,.09.07.18.12.33ZM17.6,25.18h0a6.36,6.36,0,0,1,1.13-1.93A1.24,1.24,0,0,1,19,23a.55.55,0,0,1,.32-.1.52.52,0,0,1,.31.1c.23.16.43.33.64.5a.2.2,0,0,1,0,.32c-.25.28-.49.57-.74.84a.39.39,0,0,1-.21.08h0a1.72,1.72,0,0,0-.48-.08,1.68,1.68,0,0,0-1.12.49s0,0-.06,0Zm12.16,6.63a.67.67,0,0,1-.49-.26c-.68-.74-1.34-1.5-2-2.23a66,66,0,0,0-5.78-5.44c-.28-.24-.28-.26,0-.47l.06,0a.83.83,0,0,1,.59-.26,1.38,1.38,0,0,1,.51.12,10.81,10.81,0,0,0,2.2.5,22.08,22.08,0,0,1,3.87.76,7.29,7.29,0,0,1,1.41.67,2.86,2.86,0,0,1,1.42,2.65,6.93,6.93,0,0,1-1.35,3.75.49.49,0,0,1-.42.25Zm-4.82,2.65A3.57,3.57,0,0,1,21.31,32a11.93,11.93,0,0,1-.63-3c-.13-1-.27-2-.44-3a2.31,2.31,0,0,0-.32-.72c-.07-.15-.09-.26,0-.38s.41-.48.63-.71.17-.18.23-.18.13,0,.24.15c1,.91,2.06,1.8,3.06,2.73a62.56,62.56,0,0,1,4.73,4.91.75.75,0,0,1-.15,1.28A7.08,7.08,0,0,1,25,34.46Zm-6.75-3.32a5.63,5.63,0,0,1-1.08-3.6,3,3,0,0,1,.55-1.64,3.18,3.18,0,0,1,.58-.58.91.91,0,0,1,.39-.17h.07a1.88,1.88,0,0,1,.33.05,1.8,1.8,0,0,1-.1.33,7.48,7.48,0,0,0-.76,5.53.31.31,0,0,1,0,.08Zm4.09,3A4.66,4.66,0,0,1,18.46,30a7.85,7.85,0,0,1,.9-4.24l.09-.14.09,0A3.46,3.46,0,0,1,20,27c.15,1.16.27,2.33.44,3.49a6.72,6.72,0,0,0,.77,2.34,4.32,4.32,0,0,0,1.12,1.35Z"/><path class="cls-2" d="M32.69,13.79c.3.26.61.51.89.79a8.27,8.27,0,0,0,2,1.56l1.22.68a.7.7,0,0,1,.37.6,4.83,4.83,0,0,1-.06,1c-.17.73,0,.68-.38,2.71-.07.39-.07.32-.28,1.37a14.63,14.63,0,0,1-1.41,4.06.46.46,0,0,1-.18.15.43.43,0,0,1-.23,0h-.17a15.44,15.44,0,0,1-3.13-.79l-10-3.66-.08,0a11.61,11.61,0,0,1-2.2-1.48A5,5,0,0,1,18,19.45a1.23,1.23,0,0,1,0-1.35,2,2,0,0,1,.24-.27,1.57,1.57,0,0,0,.25-.27,1.38,1.38,0,0,1,1.25-.68,2.18,2.18,0,0,1,.93.24,7.46,7.46,0,0,0,1.78.54l.2,0A13.59,13.59,0,0,0,26,17.6a6.18,6.18,0,0,0,1.78-.32,4.88,4.88,0,0,0,1.13-.63c.11-.12.27-.31.45-.55.31-.41.49-.72.58-.86.52-.87,1.06-1.74,1.77-1.81A1.34,1.34,0,0,1,32.69,13.79Zm-.27,7.72-2.63-.06a4.83,4.83,0,0,1-1.71-.38,1.1,1.1,0,0,1-.57-.49.65.65,0,0,1,0-.51,1.26,1.26,0,0,1,.77-.86,6.29,6.29,0,0,1,1.05-.3c.18,0,.31-.07.32,0s-.13.09-.27.22a2.1,2.1,0,0,0-.32.61.48.48,0,0,0,.2.58,1.59,1.59,0,0,0,.78.27l3.14.22L36,21h.2l0-.21h-.32A9.56,9.56,0,0,1,34,20.6a4.31,4.31,0,0,1-2.13-1.09c-.36-.32-.68-.67-1-1a.6.6,0,0,1-.08-.08c-.12.07-.22.14-.34.2a.45.45,0,0,1-.39,0c-.28-.09-.56-.17-.84-.27a1.19,1.19,0,0,0-.77,0c-.43.14-.85.28-1.28.4a6.71,6.71,0,0,1-.78.15.31.31,0,0,0-.28.19,4.75,4.75,0,0,0-.43,2.38.16.16,0,0,0,.13.17l2.77.89c.67.21,1.34.4,2,.6a.34.34,0,0,0,.37-.09c.38-.37.75-.75,1.14-1.11.17-.16.36-.29.55-.44ZM18.59,19.2a5.21,5.21,0,0,0,1.48,1.55A9.52,9.52,0,0,0,22.48,22c1.74.64,3.46,1.3,5.2,1.93q2.31.84,4.63,1.64a11.14,11.14,0,0,0,2.14.52.24.24,0,0,0,.27-.13l.37-.73-.53-.13c-1-.25-2.06-.47-3.08-.74s-2.31-.61-3.44-1-2.55-.84-3.81-1.3a26.47,26.47,0,0,1-3.6-1.63,11.66,11.66,0,0,1-2-1.33L18.56,19h0l0,0Zm12.52-2.54c.51.55,1,1.11,1.54,1.66a2.29,2.29,0,0,1,.65,1.5.19.19,0,0,0,.14.19,6.3,6.3,0,0,0,1.93.32H36c.09,0,.13,0,.14-.13,0-.38.11-.75.17-1.13a.3.3,0,0,0-.1-.29c-.69-.66-1.37-1.35-2.06-2-.53-.5-1.09-1-1.64-1.45a3.45,3.45,0,0,0-.59-.41c-.36-.23-.6,0-.75.28,0,0,0,.09,0,.13a.68.68,0,0,0,.12.12.47.47,0,0,1,.1.57.48.48,0,0,1-.49.3h-.13ZM32,23.49l3.12.73c.12,0,.19,0,.24-.12A8.53,8.53,0,0,0,36,21.83s0,0,0-.07h-.11l-2.68.11a1,1,0,0,0-.7.31l-1,1-.1.12ZM29,17.41a.42.42,0,0,0-.05.14c0,.13.11.25.13.29a.19.19,0,0,0,.11.09c.3.1.6.21.9.3s.31,0,.39-.18.23-.63.34-.95a.17.17,0,0,0,0-.15l-.46-.5a.19.19,0,0,1-.05-.21c.05-.11.07-.22.12-.33s.17-.19.32-.1a.56.56,0,0,0,.17.09c.05,0,.11,0,.16,0s0-.12,0-.15-.17-.13-.24-.21-.1-.13-.08-.18a1.25,1.25,0,0,1,.57-.79.72.72,0,0,1,.83,0,12.29,12.29,0,0,1,1.28,1c1,.9,2,1.85,2.94,2.77l.17.17a2.43,2.43,0,0,0,.08-1c0-.05-.08-.11-.13-.14L35,16.5A7.61,7.61,0,0,1,33.14,15a5.43,5.43,0,0,0-1-.84.59.59,0,0,0-.24-.08.55.55,0,0,0-.26,0,1.65,1.65,0,0,0-.53.4,5.72,5.72,0,0,0-.47.61c-.73,1.16-.73,1.16-.74,1.16S29.4,16.86,29,17.41Zm-5.71,2-.08.09a.57.57,0,0,1-.91,0,.76.76,0,0,1-.08-.11,1.76,1.76,0,0,0-.85-.72,10,10,0,0,1-1-.56c-.21-.13-.31-.4-.62-.55a.48.48,0,0,0-.33-.06c-.11,0-.18.13-.36.31a.16.16,0,0,0,0,.26c.23.19.45.4.69.58a17.18,17.18,0,0,0,2.81,1.64l.57.27.14.05ZM25.73,19l-2.05.08c0,.32.08.62.08.92s0,.5-.06.75c0,.05,0,.13.05.14l1.44.52h.1A5.62,5.62,0,0,1,25.73,19ZM31,18s0,.08.05.1a12.58,12.58,0,0,0,1.53,1.48l.23.15.09,0c0-.07,0-.13,0-.18a1.58,1.58,0,0,0-.33-.72l-1.26-1.38-.09-.07C31.12,17.58,31.05,17.77,31,18Zm104.89,3h0"/><path class="cls-1" d="M32.67,21.51h-.25l-2.63-.06a4.83,4.83,0,0,1-1.71-.38,1.1,1.1,0,0,1-.57-.49.65.65,0,0,1,0-.51,1.42,1.42,0,0,1,.43-.67,2.16,2.16,0,0,1,.34-.19,4.31,4.31,0,0,1,1-.3h.14c.11,0,.18,0,.19,0s0,0-.1.1l-.1.09a1,1,0,0,0-.31.61.61.61,0,0,0,.2.58,1.59,1.59,0,0,0,.78.27l3.14.22L36,21h.2l0-.21h-.32A9.56,9.56,0,0,1,34,20.6a4.31,4.31,0,0,1-2.13-1.09c-.36-.32-.68-.67-1-1a.6.6,0,0,1-.08-.08c-.12.07-.22.14-.34.2a.45.45,0,0,1-.39,0c-.28-.09-.56-.17-.84-.27a1.19,1.19,0,0,0-.77,0c-.43.14-.85.28-1.28.4a6.71,6.71,0,0,1-.78.15.31.31,0,0,0-.28.19,4.75,4.75,0,0,0-.43,2.38.16.16,0,0,0,.13.17l2.77.89c.67.21,1.34.4,2,.6a.34.34,0,0,0,.37-.09c.38-.37.75-.75,1.14-1.11C32.29,21.79,32.48,21.66,32.67,21.51Z"/><path class="cls-1" d="M18.49,19.06l.1.14a5.21,5.21,0,0,0,1.48,1.55A9.52,9.52,0,0,0,22.48,22c1.74.64,3.46,1.3,5.2,1.93q2.31.84,4.63,1.64a11.14,11.14,0,0,0,2.14.52.24.24,0,0,0,.27-.13l.37-.73-.53-.13c-1-.25-2.06-.47-3.08-.74s-2.31-.61-3.44-1-2.55-.84-3.81-1.3a26.47,26.47,0,0,1-3.6-1.63,11.66,11.66,0,0,1-2-1.33L18.56,19h0Z"/><path class="cls-1" d="M31,16.33a.48.48,0,0,0,.49-.3.47.47,0,0,0-.1-.57.68.68,0,0,1-.12-.12s0-.1,0-.13c.15-.26.39-.51.75-.28a3.45,3.45,0,0,1,.59.41c.55.47,1.11.95,1.64,1.45.69.65,1.37,1.34,2.06,2a.3.3,0,0,1,.1.29c-.06.38-.12.75-.17,1.13,0,.09-.05.13-.14.13h-.66A6.3,6.3,0,0,1,33.44,20a.19.19,0,0,1-.14-.19,2.29,2.29,0,0,0-.65-1.5c-.52-.55-1-1.11-1.54-1.66l-.29-.33Z"/><path class="cls-1" d="M31.33,23.33l.63.16,3.12.73c.12,0,.19,0,.24-.12A8.53,8.53,0,0,0,36,21.83s0,0,0-.07h-.11l-2.68.11a1,1,0,0,0-.7.31l-1,1Z"/><path class="cls-1" d="M23.3,20.67a3.5,3.5,0,0,0,0-1.25l0-.33a9.65,9.65,0,0,1-1.46-.41,12.16,12.16,0,0,1-2.07-1.06.53.53,0,0,0-.33-.06c-.11,0-.18.13-.36.31a.16.16,0,0,0,0,.26c.23.19.45.4.69.58a17.18,17.18,0,0,0,2.81,1.64l.57.27Z"/><path class="cls-1" d="M25.29,21.41A5.62,5.62,0,0,1,25.73,19l-2.05.08c0,.32.08.62.08.92s0,.5-.06.75c0,.05,0,.13.05.14l1.44.52Z"/><path class="cls-1" d="M31.19,17.37c-.07.21-.14.4-.2.59,0,0,0,.08.05.1a12.58,12.58,0,0,0,1.53,1.48l.23.15.09,0c0-.07,0-.13,0-.18a1.58,1.58,0,0,0-.33-.72l-1.26-1.38Z"/><path class="cls-1" d="M27,18.3h.06a.19.19,0,0,0,.15-.22l-.14-.83a.18.18,0,0,0-.21-.15h-.06a.18.18,0,0,0-.15.21l.14.84A.19.19,0,0,0,27,18.3Z"/><path class="cls-1" d="M26.28,18.35h0a.17.17,0,0,0,.15-.19l-.1-.88a.17.17,0,0,0-.18-.15h-.06a.17.17,0,0,0-.15.19l.1.88A.18.18,0,0,0,26.28,18.35Z"/><path class="cls-1" d="M25.61,18.38h.05a.17.17,0,0,0,.16-.19l-.07-.84a.16.16,0,0,0-.18-.16h-.05a.17.17,0,0,0-.16.19l.07.84A.16.16,0,0,0,25.61,18.38Z"/><path class="cls-1" d="M24.93,18.36H25a.18.18,0,0,0,.16-.2l-.07-.91a.18.18,0,0,0-.19-.17h-.06a.18.18,0,0,0-.17.2l.07.9A.19.19,0,0,0,24.93,18.36Z"/><g class="cls-3"><path class="cls-4" d="M10.77,26.71V21.19H13a3.27,3.27,0,0,1,1.54.35,2.63,2.63,0,0,1,1,1A2.79,2.79,0,0,1,15.92,24a2.82,2.82,0,0,1-.36,1.44,2.6,2.6,0,0,1-1,1,3.15,3.15,0,0,1-1.54.35Zm.58-.5H13a2.61,2.61,0,0,0,1.26-.29,2.09,2.09,0,0,0,.84-.8A2.31,2.31,0,0,0,15.35,24a2.33,2.33,0,0,0-.29-1.17,2.07,2.07,0,0,0-.84-.79A2.5,2.5,0,0,0,13,21.7H11.35Z"/><path class="cls-4" d="M17.8,26.21h3.28v.5H17.22V21.19H21v.51H17.8Zm-.07-2.55h2.89v.5H17.73Z"/><path class="cls-4" d="M24,26.76a3.27,3.27,0,0,1-1.17-.2,2.17,2.17,0,0,1-.86-.52l.22-.45a2.47,2.47,0,0,0,.78.48,2.77,2.77,0,0,0,1,.19,2.25,2.25,0,0,0,.84-.13,1,1,0,0,0,.47-.35.84.84,0,0,0,.16-.49.77.77,0,0,0-.19-.52,1.29,1.29,0,0,0-.48-.31c-.2-.07-.41-.14-.65-.2l-.72-.18a3.26,3.26,0,0,1-.66-.27,1.48,1.48,0,0,1-.49-.44,1.27,1.27,0,0,1-.18-.71,1.34,1.34,0,0,1,.22-.75,1.51,1.51,0,0,1,.65-.56,2.7,2.7,0,0,1,1.14-.21,3.21,3.21,0,0,1,.92.14,2.54,2.54,0,0,1,.78.35l-.2.47a2.64,2.64,0,0,0-.74-.35,3,3,0,0,0-.76-.11,2.16,2.16,0,0,0-.82.14,1,1,0,0,0-.47.36.84.84,0,0,0-.15.5.73.73,0,0,0,.18.52,1.18,1.18,0,0,0,.49.31,5.16,5.16,0,0,0,.66.2l.71.19a3.94,3.94,0,0,1,.66.26,1.33,1.33,0,0,1,.48.43,1.27,1.27,0,0,1,.19.71,1.42,1.42,0,0,1-.22.74,1.55,1.55,0,0,1-.67.55A2.72,2.72,0,0,1,24,26.76Z"/><path class="cls-4" d="M27.24,26.71V21.19h.58v5.52Z"/><path class="cls-4" d="M32,26.76a3.15,3.15,0,0,1-1.16-.21,2.78,2.78,0,0,1-.91-.58,2.63,2.63,0,0,1-.6-.9A2.9,2.9,0,0,1,29.12,24a3,3,0,0,1,.21-1.12,2.48,2.48,0,0,1,.61-.89,2.8,2.8,0,0,1,.91-.59A3.09,3.09,0,0,1,32,21.14a3.27,3.27,0,0,1,1.15.2,2.23,2.23,0,0,1,.88.6l-.36.37a2,2,0,0,0-.75-.49,2.64,2.64,0,0,0-.89-.15,2.42,2.42,0,0,0-.94.17,2.15,2.15,0,0,0-.74.48,2.24,2.24,0,0,0-.49.72,2.33,2.33,0,0,0,.49,2.55,2.15,2.15,0,0,0,.74.48,2.6,2.6,0,0,0,.93.17,2.91,2.91,0,0,0,.89-.14,2.21,2.21,0,0,0,.76-.48l.33.44a2.49,2.49,0,0,1-.91.52A3.32,3.32,0,0,1,32,26.76ZM33.45,26V24H34v2.11Z"/>
<path class="cls-4" d="M35.63,26.71V21.19h.48L39.88,26h-.25v-4.8h.57v5.52h-.48L36,21.92h.25v4.79Z"/></g>
</svg>