<svg aria-hidden="true" style="position: absolute; width: 0; height: 0; overflow: hidden;" version="1.1" xmlns="http://www.w3.org/2000/svg" xmlns:xlink="http://www.w3.org/1999/xlink">
<defs>
<symbol id="grey-star" viewBox="0 0 35 32">
<path fill="#c7ced6" style="fill: var(--color1, #c7ced6)" d="M33.876 11.391c-0.39-0.41-0.922-0.677-1.502-0.753v-0.001l-9.059-1.175-3.585-8.042c-0.523-1.177-1.964-1.733-3.218-1.242-0.598 0.234-1.073 0.68-1.322 1.242l-3.585 8.042-9.059 1.175c-1.35 0.176-2.292 1.347-2.104 2.614 0.081 0.544 0.365 1.044 0.802 1.41l6.826 5.714-1.402 8.966c-0.152 0.91 0.294 1.818 1.13 2.3 0.824 0.495 1.885 0.477 2.689-0.047l6.974-4.452 6.974 4.457c1.125 0.717 2.657 0.442 3.421-0.615 0.347-0.48 0.489-1.065 0.398-1.639l-1.402-8.97 6.826-5.714c1.018-0.851 1.107-2.315 0.201-3.27zM24.739 19.084c-0.305 0.256-0.453 0.639-0.393 1.019l1.461 9.599-7.66-4.889c-0.413-0.263-0.955-0.263-1.368 0l-7.705 4.859 1.499-9.574c0.058-0.379-0.089-0.76-0.393-1.015l-7.304-6.18 9.749-1.263c0.427-0.055 0.791-0.318 0.957-0.691l3.893-8.665c0.004 0.005 0.008 0.011 0.010 0.017l3.853 8.643c0.166 0.373 0.53 0.636 0.957 0.691l9.761 1.319-7.315 6.129z"></path>
</symbol>
<symbol id="orange-star" viewBox="0 0 37 32">
<path fill="#feb300" style="fill: var(--color2, #feb300)" d="M35.519 11.391c-0.39-0.41-0.922-0.677-1.502-0.753v-0.001l-9.059-1.175-3.585-8.042c-0.523-1.177-1.964-1.733-3.218-1.242-0.598 0.234-1.073 0.68-1.323 1.242l-3.585 8.042-9.060 1.175c-1.35 0.176-2.292 1.347-2.104 2.614 0.081 0.544 0.365 1.044 0.802 1.41l6.826 5.714-1.402 8.966c-0.152 0.91 0.294 1.818 1.13 2.3 0.824 0.495 1.885 0.477 2.689-0.047l6.974-4.452 6.974 4.457c1.125 0.717 2.657 0.442 3.421-0.615 0.347-0.48 0.489-1.065 0.398-1.639l-1.402-8.97 6.826-5.714c1.018-0.851 1.107-2.315 0.201-3.27zM26.382 19.084c-0.305 0.256-0.453 0.639-0.393 1.019l1.461 9.599-7.66-4.889c-0.413-0.263-0.955-0.263-1.368 0l-7.705 4.859 1.499-9.574c0.058-0.379-0.089-0.76-0.393-1.015l-7.304-6.18 9.749-1.263c0.427-0.055 0.791-0.318 0.957-0.691l3.893-8.665c0.004 0.005 0.008 0.011 0.010 0.017l3.853 8.643c0.166 0.373 0.53 0.636 0.957 0.691l9.761 1.319-7.315 6.129z"></path>
</symbol>
</defs>
</svg>
