<svg aria-hidden="true" style="position: absolute; width: 0; height: 0; overflow: hidden;" version="1.1" xmlns="http://www.w3.org/2000/svg" xmlns:xlink="http://www.w3.org/1999/xlink">
<defs>
<symbol id="menu-burger" viewBox="0 0 38 32">
<path d="M34.824 5.647h-32c-1.559 0-2.824-1.264-2.824-2.824s1.264-2.824 2.824-2.824h32c1.559 0 2.824 1.264 2.824 2.824s-1.264 2.824-2.824 2.824z"></path>
<path d="M34.824 18.824h-32c-1.559 0-2.824-1.264-2.824-2.824s1.264-2.824 2.824-2.824h32c1.559 0 2.824 1.264 2.824 2.824s-1.264 2.824-2.824 2.824z"></path>
<path d="M34.824 32h-32c-1.559 0-2.824-1.264-2.824-2.824s1.264-2.824 2.824-2.824h32c1.559 0 2.824 1.264 2.824 2.824s-1.264 2.824-2.824 2.824z"></path>
<!-- fill="#ff7b00" -->
</symbol>
<symbol id="menu-cross" viewBox="0 0 32 32">
<path d="M21.418 16l9.459-9.458c1.497-1.497 1.497-3.923 0-5.419-1.495-1.496-3.923-1.496-5.418 0l-9.459 9.46-9.459-9.46c-1.495-1.496-3.923-1.496-5.418 0-1.497 1.497-1.497 3.923 0 5.419l9.458 9.458-9.458 9.458c-1.497 1.497-1.497 3.923 0 5.419 0.747 0.749 1.729 1.122 2.709 1.122s1.962-0.373 2.709-1.122l9.459-9.458 9.459 9.459c0.748 0.749 1.729 1.122 2.709 1.122s1.962-0.373 2.709-1.122c1.497-1.497 1.497-3.923 0-5.419l-9.459-9.459z"></path>
</symbol>
<symbol id="logo" viewBox="0 0 126 24" fill="none" xmlns="http://www.w3.org/2000/svg">
<path d="M0.597749 18.9724C0.407163 18.9724 0.259891 18.9195 0.155934 18.8137C0.0519782 18.6902 0 18.5402 0 18.3638V1.08489C0 0.890848 0.0519782 0.740903 0.155934 0.63506C0.259891 0.511576 0.407163 0.449834 0.597749 0.449834H11.2013C11.3919 0.449834 11.5392 0.511576 11.6431 0.63506C11.7471 0.740903 11.799 0.890848 11.799 1.08489V2.14333C11.799 2.33738 11.7471 2.48732 11.6431 2.59316C11.5392 2.69901 11.3919 2.75193 11.2013 2.75193H2.52094V8.91731H10.6815C10.8721 8.91731 11.0194 8.97905 11.1233 9.10254C11.2273 9.20838 11.2793 9.35832 11.2793 9.55237V10.6108C11.2793 10.7872 11.2273 10.9372 11.1233 11.0606C11.0194 11.1665 10.8721 11.2194 10.6815 11.2194H2.52094V18.3638C2.52094 18.5402 2.4603 18.6902 2.33902 18.8137C2.23506 18.9195 2.08779 18.9724 1.8972 18.9724H0.597749Z" fill="white"/>
<path d="M15.3102 18.9724C15.137 18.9724 14.9897 18.9195 14.8684 18.8137C14.7644 18.6902 14.7125 18.5402 14.7125 18.3638V5.82139C14.7125 5.64498 14.7644 5.50386 14.8684 5.39802C14.9897 5.27453 15.137 5.21279 15.3102 5.21279H16.5577C16.731 5.21279 16.8696 5.27453 16.9735 5.39802C17.0775 5.50386 17.1295 5.64498 17.1295 5.82139V18.3638C17.1295 18.5402 17.0775 18.6902 16.9735 18.8137C16.8696 18.9195 16.731 18.9724 16.5577 18.9724H15.3102ZM15.1023 2.64609C14.929 2.64609 14.7818 2.59316 14.6605 2.48732C14.5565 2.36384 14.5046 2.21389 14.5046 2.03749V0.6086C14.5046 0.432193 14.5565 0.291068 14.6605 0.185225C14.7818 0.0617417 14.929 0 15.1023 0H16.7396C16.9129 0 17.0515 0.0617417 17.1554 0.185225C17.2767 0.291068 17.3374 0.432193 17.3374 0.6086V2.03749C17.3374 2.21389 17.2767 2.36384 17.1554 2.48732C17.0515 2.59316 16.9129 2.64609 16.7396 2.64609H15.1023Z" fill="white"/>
<path d="M21.6045 18.9724C21.4312 18.9724 21.2839 18.9195 21.1626 18.8137C21.0587 18.6902 21.0067 18.5402 21.0067 18.3638V5.84785C21.0067 5.67144 21.0587 5.5215 21.1626 5.39802C21.2839 5.27453 21.4312 5.21279 21.6045 5.21279H22.7999C22.9732 5.21279 23.1205 5.27453 23.2418 5.39802C23.363 5.5215 23.4237 5.67144 23.4237 5.84785V7.01213C23.7702 6.41235 24.2467 5.96251 24.8531 5.66262C25.4595 5.36273 26.1872 5.21279 27.0362 5.21279H28.0757C28.249 5.21279 28.3876 5.27453 28.4916 5.39802C28.5955 5.50386 28.6475 5.64498 28.6475 5.82139V6.90628C28.6475 7.08269 28.5955 7.22381 28.4916 7.32966C28.3876 7.4355 28.249 7.48842 28.0757 7.48842H26.5164C25.5808 7.48842 24.8444 7.77067 24.3073 8.33517C23.7702 8.88203 23.5017 9.63175 23.5017 10.5843V18.3638C23.5017 18.5402 23.441 18.6902 23.3197 18.8137C23.1984 18.9195 23.0512 18.9724 22.8779 18.9724H21.6045Z" fill="white"/>
<path d="M36.0055 19.237C34.2209 19.237 32.8001 18.6814 31.7432 17.57C30.6864 16.441 30.1059 14.9063 30.002 12.9658C29.9846 12.7365 29.976 12.4454 29.976 12.0926C29.976 11.7222 29.9846 11.4223 30.002 11.1929C30.0713 9.94046 30.3572 8.84675 30.8596 7.9118C31.3621 6.95921 32.0464 6.22712 32.9128 5.71554C33.7964 5.20397 34.8273 4.94818 36.0055 4.94818C37.3222 4.94818 38.4224 5.23043 39.3061 5.79493C40.207 6.35943 40.8914 7.16207 41.3592 8.20287C41.827 9.24366 42.0609 10.4609 42.0609 11.8545V12.3043C42.0609 12.4983 42.0003 12.6483 41.879 12.7541C41.775 12.86 41.6364 12.9129 41.4632 12.9129H32.4709C32.4709 12.9305 32.4709 12.9658 32.4709 13.0187C32.4709 13.0717 32.4709 13.1158 32.4709 13.151C32.5056 13.8743 32.6615 14.5535 32.9387 15.1885C33.216 15.806 33.6145 16.3087 34.1342 16.6968C34.654 17.0849 35.2778 17.2789 36.0055 17.2789C36.6292 17.2789 37.149 17.1819 37.5648 16.9879C37.9806 16.7938 38.3185 16.5821 38.5784 16.3528C38.8383 16.1058 39.0115 15.9206 39.0982 15.7971C39.2541 15.5678 39.3754 15.4355 39.462 15.4002C39.5486 15.3473 39.6872 15.3208 39.8778 15.3208H41.1253C41.2986 15.3208 41.4372 15.3738 41.5411 15.4796C41.6624 15.5678 41.7144 15.7001 41.6971 15.8765C41.6797 16.1411 41.5411 16.4675 41.2812 16.8556C41.0214 17.226 40.6488 17.5965 40.1637 17.9669C39.6786 18.3374 39.0895 18.6461 38.3965 18.8931C37.7034 19.1224 36.9064 19.237 36.0055 19.237ZM32.4709 11.0871H39.5919V11.0077C39.5919 10.2139 39.4447 9.50827 39.1501 8.89085C38.8729 8.27343 38.4658 7.78831 37.9286 7.4355C37.3915 7.06505 36.7505 6.87982 36.0055 6.87982C35.2604 6.87982 34.6194 7.06505 34.0823 7.4355C33.5625 7.78831 33.164 8.27343 32.8868 8.89085C32.6095 9.50827 32.4709 10.2139 32.4709 11.0077V11.0871Z" fill="white"/>
<path d="M45.8182 18.9724C45.6276 18.9724 45.4716 18.9107 45.3504 18.7872C45.2291 18.6637 45.1684 18.505 45.1684 18.3109V1.11136C45.1684 0.917309 45.2291 0.758544 45.3504 0.63506C45.4716 0.511576 45.6276 0.449834 45.8182 0.449834H48.2611C48.521 0.449834 48.7116 0.520396 48.8329 0.661521C48.9715 0.802646 49.0581 0.908489 49.0928 0.979052L53.9008 9.92282L58.7088 0.979052C58.7434 0.908489 58.8214 0.802646 58.9427 0.661521C59.0813 0.520396 59.2805 0.449834 59.5404 0.449834H61.9574C62.148 0.449834 62.3039 0.511576 62.4252 0.63506C62.5465 0.758544 62.6071 0.917309 62.6071 1.11136V18.3109C62.6071 18.505 62.5465 18.6637 62.4252 18.7872C62.3039 18.9107 62.148 18.9724 61.9574 18.9724H59.3065C59.1332 18.9724 58.986 18.9107 58.8647 18.7872C58.7434 18.6637 58.6828 18.505 58.6828 18.3109V7.64719L55.3822 13.9184C55.3128 14.0772 55.2089 14.2183 55.0703 14.3418C54.9317 14.4653 54.7411 14.527 54.4985 14.527H53.277C53.0518 14.527 52.8699 14.4653 52.7313 14.3418C52.5927 14.2183 52.48 14.0772 52.3934 13.9184L49.1188 7.64719V18.3109C49.1188 18.505 49.0581 18.6637 48.9369 18.7872C48.8156 18.9107 48.6596 18.9724 48.4691 18.9724H45.8182Z" fill="white"/>
<path d="M72.3618 19.237C70.9237 19.237 69.7195 18.9989 68.7493 18.5226C67.779 18.0287 67.034 17.3319 66.5142 16.4322C66.0118 15.5325 65.7345 14.4829 65.6826 13.2834C65.6652 12.9305 65.6566 12.5336 65.6566 12.0926C65.6566 11.634 65.6652 11.237 65.6826 10.9019C65.7345 9.68467 66.0291 8.63506 66.5662 7.75303C67.1033 6.85336 67.857 6.16538 68.8272 5.68908C69.7975 5.19515 70.9757 4.94818 72.3618 4.94818C73.7305 4.94818 74.9 5.19515 75.8703 5.68908C76.8405 6.16538 77.5942 6.85336 78.1313 7.75303C78.6684 8.63506 78.9716 9.68467 79.041 10.9019C79.0583 11.237 79.0669 11.634 79.0669 12.0926C79.0669 12.5336 79.0583 12.9305 79.041 13.2834C78.9716 14.4829 78.6771 15.5325 78.1573 16.4322C77.6549 17.3319 76.9185 18.0287 75.9482 18.5226C74.978 18.9989 73.7825 19.237 72.3618 19.237ZM72.3618 16.2999C73.2107 16.2999 73.8431 16.0353 74.259 15.5061C74.6921 14.9768 74.9347 14.1918 74.9867 13.151C75.004 12.8864 75.0126 12.5336 75.0126 12.0926C75.0126 11.6516 75.004 11.2988 74.9867 11.0342C74.9347 10.011 74.6921 9.23484 74.259 8.70562C73.8431 8.15876 73.2107 7.88534 72.3618 7.88534C71.5128 7.88534 70.8717 8.15876 70.4386 8.70562C70.0054 9.23484 69.7628 10.011 69.7109 11.0342C69.6935 11.2988 69.6849 11.6516 69.6849 12.0926C69.6849 12.5336 69.6935 12.8864 69.7109 13.151C69.7628 14.1918 70.0054 14.9768 70.4386 15.5061C70.8717 16.0353 71.5128 16.2999 72.3618 16.2999Z" fill="white"/>
<path d="M82.4088 18.9724C82.2355 18.9724 82.0796 18.9107 81.941 18.7872C81.8197 18.6637 81.7591 18.505 81.7591 18.3109V5.87431C81.7591 5.68026 81.8197 5.5215 81.941 5.39802C82.0796 5.27453 82.2355 5.21279 82.4088 5.21279H84.9557C85.1463 5.21279 85.3022 5.27453 85.4235 5.39802C85.5448 5.5215 85.6054 5.68026 85.6054 5.87431V6.90628C86.0559 6.34178 86.6363 5.87431 87.3467 5.50386C88.0744 5.13341 88.9407 4.94818 89.9456 4.94818C90.9678 4.94818 91.8688 5.18633 92.6485 5.66262C93.4282 6.12128 94.0346 6.80044 94.4677 7.70011C94.9009 8.58214 95.1174 9.65821 95.1174 10.9283V18.3109C95.1174 18.505 95.0568 18.6637 94.9355 18.7872C94.8142 18.9107 94.6583 18.9724 94.4677 18.9724H91.7129C91.5223 18.9724 91.3664 18.9107 91.2451 18.7872C91.1238 18.6637 91.0631 18.505 91.0631 18.3109V11.0871C91.0631 10.1521 90.8379 9.42889 90.3874 8.91731C89.9543 8.38809 89.3132 8.12348 88.4642 8.12348C87.6499 8.12348 87.0002 8.38809 86.5151 8.91731C86.0472 9.42889 85.8133 10.1521 85.8133 11.0871V18.3109C85.8133 18.505 85.7527 18.6637 85.6314 18.7872C85.5101 18.9107 85.3542 18.9724 85.1636 18.9724H82.4088Z" fill="white"/>
<path d="M104.261 19.237C102.268 19.237 100.683 18.6725 99.5047 17.5436C98.3439 16.4146 97.7288 14.774 97.6595 12.6218C97.6595 12.4807 97.6595 12.2955 97.6595 12.0662C97.6595 11.8192 97.6595 11.634 97.6595 11.5105C97.7288 10.1345 98.032 8.96141 98.5691 7.99118C99.1062 7.00331 99.8599 6.25358 100.83 5.74201C101.8 5.21279 102.935 4.94818 104.235 4.94818C105.707 4.94818 106.929 5.25689 107.899 5.87431C108.869 6.47409 109.597 7.3032 110.082 8.36163C110.585 9.40243 110.836 10.602 110.836 11.9603V12.5689C110.836 12.7453 110.775 12.9041 110.654 13.0452C110.533 13.1687 110.377 13.2304 110.186 13.2304H101.714C101.714 13.2304 101.714 13.2569 101.714 13.3098C101.714 13.3451 101.714 13.3804 101.714 13.4157C101.731 13.9802 101.835 14.5006 102.026 14.9768C102.216 15.4355 102.493 15.806 102.857 16.0882C103.238 16.3705 103.698 16.5116 104.235 16.5116C104.651 16.5116 104.997 16.4498 105.274 16.3264C105.552 16.1852 105.777 16.0353 105.95 15.8765C106.141 15.7001 106.279 15.5502 106.366 15.4267C106.522 15.2326 106.643 15.118 106.73 15.0827C106.834 15.0298 106.981 15.0033 107.172 15.0033H109.926C110.082 15.0033 110.212 15.0562 110.316 15.1621C110.437 15.2679 110.489 15.4002 110.472 15.559C110.455 15.8589 110.308 16.2205 110.03 16.6439C109.77 17.0496 109.381 17.4553 108.861 17.8611C108.341 18.2492 107.691 18.5755 106.912 18.8401C106.149 19.1047 105.266 19.237 104.261 19.237ZM101.714 10.796H106.782V10.7166C106.782 10.0992 106.678 9.56119 106.47 9.10254C106.279 8.62624 105.993 8.25579 105.612 7.99118C105.231 7.72657 104.772 7.59427 104.235 7.59427C103.698 7.59427 103.238 7.72657 102.857 7.99118C102.493 8.25579 102.208 8.62624 102 9.10254C101.809 9.56119 101.714 10.0992 101.714 10.7166V10.796Z" fill="white"/>
<path d="M115.344 24C115.206 24 115.076 23.9471 114.955 23.8412C114.851 23.7354 114.799 23.6031 114.799 23.4443C114.799 23.409 114.807 23.3561 114.825 23.2856C114.842 23.2326 114.868 23.1621 114.903 23.0739L116.93 18.1257L111.94 6.13892C111.888 5.99779 111.862 5.88313 111.862 5.79493C111.879 5.63616 111.94 5.50386 112.044 5.39802C112.148 5.27453 112.278 5.21279 112.434 5.21279H114.981C115.189 5.21279 115.344 5.27453 115.448 5.39802C115.552 5.50386 115.63 5.61852 115.682 5.74201L118.905 13.9184L122.206 5.74201C122.275 5.60088 122.362 5.4774 122.465 5.37155C122.569 5.26571 122.734 5.21279 122.959 5.21279H125.428C125.584 5.21279 125.714 5.27453 125.818 5.39802C125.939 5.50386 126 5.62734 126 5.76847C126 5.85667 125.974 5.98015 125.922 6.13892L118.567 23.4708C118.498 23.6119 118.403 23.7354 118.281 23.8412C118.177 23.9471 118.013 24 117.787 24H115.344Z" fill="white"/>
</symbol>
<symbol id="fire-icon" viewBox="0 0 56 56" fill="none" xmlns="http://www.w3.org/2000/svg">
<path fill-rule="evenodd" clip-rule="evenodd" d="M49.9497 37.3485C49.9497 51.1712 37.8805 54.4075 34.8157 55.006C34.5754 55.0538 34.4424 55.083 34.2125 55.1098C34.1204 55.1203 33.901 55.125 33.7634 55.125L22.6334 55.1168C22.4922 55.1168 22.0244 55.0982 22.001 55.097C21.5449 55.0632 20.6349 54.9803 19.4694 54.7762C15.0734 54.0167 7.04669 51.6192 6.17169 44.1747C5.44019 37.9447 8.10252 34.8343 11.4462 30.6763C14.1412 27.3245 12.0295 22.365 12.0132 22.3183C12.0832 22.3557 16.555 24.815 17.6225 26.9197C18.1693 27.9167 18.6074 28.9697 18.9292 30.0603C18.9082 29.8888 17.9725 22.1713 21.9625 16.982C25.998 11.732 26.845 10.1232 26.9209 7.43866C26.7584 5.15873 26.1616 2.93087 25.1627 0.875C29.0644 3.35006 32.371 6.65666 34.846 10.5583C36.7746 13.6184 37.8455 17.1405 37.947 20.7562C38.9924 19.7174 39.809 18.4716 40.3445 17.0987C40.7531 15.5218 40.8411 13.879 40.6035 12.2675L43.0699 16.4675C45.8384 21.539 49.9497 30.254 49.9497 37.3485Z" fill="#D75C1E"/>
<path fill-rule="evenodd" clip-rule="evenodd" d="M49.9499 37.3485C49.9499 30.254 45.8386 21.539 43.0666 16.4733L40.6002 12.2733C40.8378 13.8848 40.7498 15.5276 40.3412 17.1045C39.8065 18.4778 38.9898 19.7238 37.9437 20.762C37.8423 17.1466 36.7713 13.6249 34.8427 10.5653C33.8382 9.04625 32.7209 7.60485 31.5002 6.2533C31.2459 8.46296 30.1702 10.262 26.6002 14.8995C22.6079 20.0888 23.5447 27.8063 23.5669 27.9778C23.2447 26.8871 22.8071 25.8338 22.2614 24.836C21.553 23.7403 20.6245 22.8039 19.5349 22.0861C18.871 24.6888 18.6649 27.387 18.9259 30.0603C18.6037 28.9696 18.1661 27.9163 17.6204 26.9185C17.506 26.699 17.3713 26.4908 17.2179 26.2966C17.0098 27.1351 16.6229 27.9187 16.0839 28.5938C12.7402 32.7518 10.0779 35.8621 10.8094 42.0921C11.6844 49.5366 19.7099 51.9353 24.1094 52.6936C25.0524 52.8628 26.0044 52.9766 26.9607 53.0343L38.7534 53.0425H38.7604L38.9097 53.0203C39.886 52.8591 40.8489 52.6251 41.7902 52.3203C45.8304 49.8866 49.9499 45.4241 49.9499 37.3485Z" fill="#FF6600"/>
<path d="M38.7893 46.3785C38.7963 41.1157 34.1903 34.041 34.1903 34.041C34.3072 34.8341 34.2639 35.6426 34.0631 36.4187C33.7995 37.094 33.3978 37.7067 32.8836 38.2177C32.8327 36.4391 32.3057 34.7067 31.3576 33.201C30.1405 31.2803 28.5133 29.6528 26.5929 28.4352C26.7756 30.0736 26.7253 31.7296 26.4436 33.3538C25.6363 37.1198 23.0999 38.9258 19.9873 42.2695C18.6806 43.7663 16.8198 46.683 17.2503 49.7362C17.3175 50.2268 17.4388 50.7084 17.6119 51.1723C17.7957 51.6502 18.0057 52.1176 18.2408 52.5723C18.6016 53.2782 19.1363 53.8804 19.7943 54.3224C20.4524 54.7643 21.2122 55.0313 22.0021 55.0982C22.0254 55.0982 22.4933 55.118 22.6344 55.118L33.7633 55.1262C33.9009 55.1262 34.1203 55.1262 34.2124 55.111L34.2731 55.1028C34.7153 54.9407 38.7799 53.2688 38.7893 46.3785Z" fill="#FF8300"/>
<path fill-rule="evenodd" clip-rule="evenodd" d="M34.1902 34.0409C34.307 34.8336 34.2638 35.6417 34.063 36.4174C33.7996 37.0932 33.3979 37.7064 32.8835 38.2176C32.8325 36.439 32.3055 34.7067 31.3575 33.2009C31.1662 32.9128 30.9725 32.6386 30.7742 32.3843C29.7417 35.4304 27.4142 37.1933 24.6235 40.1916C23.3168 41.6896 21.456 44.6051 21.8865 47.6583C21.897 47.7341 21.9215 47.8531 21.96 48.0083C22.326 49.4191 23.1454 50.6705 24.2921 51.5702C25.4388 52.4698 26.8493 52.9678 28.3067 52.9876L30.948 53.0413H32.0167C33.7808 53.0573 35.4802 52.3777 36.7468 51.1496C38.0134 49.9214 38.745 48.2437 38.7833 46.4799V46.3831C38.7962 41.1156 34.1902 34.0409 34.1902 34.0409Z" fill="#FFA511"/>
</symbol>
</defs>
</svg>
