<svg aria-hidden="true" style="position: absolute; width: 0; height: 0; overflow: hidden;" version="1.1" xmlns="http://www.w3.org/2000/svg" xmlns:xlink="http://www.w3.org/1999/xlink">
<defs>
<symbol id="tell" viewBox="0 0 32 32">
<path d="M24.329 21.169c-1.045-1.032-2.351-1.032-3.389 0-0.792 0.786-1.585 1.571-2.364 2.371-0.213 0.22-0.393 0.266-0.653 0.12-0.513-0.28-1.059-0.506-1.552-0.812-2.297-1.445-4.222-3.303-5.927-5.394-0.846-1.039-1.598-2.151-2.124-3.403-0.107-0.253-0.087-0.42 0.12-0.626 0.792-0.766 1.565-1.552 2.344-2.337 1.085-1.092 1.085-2.371-0.007-3.469-0.619-0.626-1.239-1.239-1.858-1.864-0.639-0.639-1.272-1.285-1.918-1.918-1.045-1.019-2.351-1.019-3.389 0.007-0.799 0.786-1.565 1.591-2.377 2.364-0.752 0.713-1.132 1.585-1.212 2.604-0.127 1.658 0.28 3.223 0.852 4.748 1.172 3.156 2.957 5.96 5.121 8.53 2.923 3.476 6.413 6.226 10.495 8.21 1.838 0.892 3.742 1.578 5.813 1.691 1.425 0.080 2.664-0.28 3.656-1.392 0.679-0.759 1.445-1.452 2.164-2.177 1.065-1.079 1.072-2.384 0.013-3.449-1.265-1.272-2.537-2.537-3.809-3.802z"></path>
<path d="M23.057 15.861l2.457-0.42c-0.386-2.257-1.452-4.302-3.070-5.926-1.712-1.711-3.876-2.79-6.26-3.123l-0.346 2.47c1.845 0.26 3.523 1.092 4.848 2.417 1.252 1.252 2.071 2.837 2.371 4.581z"></path>
<path d="M26.899 5.181c-2.837-2.837-6.426-4.628-10.388-5.181l-0.346 2.47c3.423 0.479 6.526 2.031 8.976 4.475 2.324 2.324 3.849 5.261 4.402 8.49l2.457-0.419c-0.646-3.742-2.411-7.138-5.101-9.835z"></path>
</symbol>
<symbol id="mail" viewBox="0 0 47 32">
<path d="M45.11 2.286l-13.802 13.714 13.802 13.714c0.25-0.522 0.401-1.098 0.401-1.714v-24c0-0.616-0.151-1.192-0.401-1.714z"></path>
<path d="M41.511 0h-37.511c-0.616 0-1.192 0.151-1.714 0.401l17.641 17.552c1.56 1.56 4.096 1.56 5.656 0l17.641-17.552c-0.521-0.249-1.098-0.401-1.714-0.401z"></path>
<path d="M0.401 2.286c-0.249 0.522-0.401 1.098-0.401 1.714v24c0 0.616 0.151 1.192 0.401 1.714l13.803-13.714-13.803-13.714z"></path>
<path d="M29.422 17.885l-1.953 1.953c-2.599 2.599-6.828 2.599-9.427 0l-1.953-1.953-13.803 13.714c0.522 0.249 1.098 0.401 1.714 0.401h37.511c0.616 0 1.192-0.151 1.714-0.401l-13.802-13.714z"></path>
</symbol>
</defs>
</svg>
