<svg aria-hidden="true" style="position: absolute; width: 0; height: 0; overflow: hidden;" version="1.1" xmlns="http://www.w3.org/2000/svg" xmlns:xlink="http://www.w3.org/1999/xlink">
<defs>
<symbol id="tell" viewBox="0 0 32 32">
<path d="M24.329 21.169c-1.045-1.032-2.351-1.032-3.389 0-0.792 0.786-1.585 1.571-2.364 2.371-0.213 0.22-0.393 0.266-0.653 0.12-0.513-0.28-1.059-0.506-1.552-0.812-2.297-1.445-4.222-3.303-5.927-5.394-0.846-1.039-1.598-2.151-2.124-3.403-0.107-0.253-0.087-0.42 0.12-0.626 0.792-0.766 1.565-1.552 2.344-2.337 1.085-1.092 1.085-2.371-0.007-3.469-0.619-0.626-1.239-1.239-1.858-1.864-0.639-0.639-1.272-1.285-1.918-1.918-1.045-1.019-2.351-1.019-3.389 0.007-0.799 0.786-1.565 1.591-2.377 2.364-0.752 0.713-1.132 1.585-1.212 2.604-0.127 1.658 0.28 3.223 0.852 4.748 1.172 3.156 2.957 5.96 5.121 8.53 2.923 3.476 6.413 6.226 10.495 8.21 1.838 0.892 3.742 1.578 5.813 1.691 1.425 0.080 2.664-0.28 3.656-1.392 0.679-0.759 1.445-1.452 2.164-2.177 1.065-1.079 1.072-2.384 0.013-3.449-1.265-1.272-2.537-2.537-3.809-3.802z"></path>
<path d="M23.057 15.861l2.457-0.42c-0.386-2.257-1.452-4.302-3.070-5.926-1.712-1.711-3.876-2.79-6.26-3.123l-0.346 2.47c1.845 0.26 3.523 1.092 4.848 2.417 1.252 1.252 2.071 2.837 2.371 4.581z"></path>
<path d="M26.899 5.181c-2.837-2.837-6.426-4.628-10.388-5.181l-0.346 2.47c3.423 0.479 6.526 2.031 8.976 4.475 2.324 2.324 3.849 5.261 4.402 8.49l2.457-0.419c-0.646-3.742-2.411-7.138-5.101-9.835z"></path>
</symbol>
<symbol id="mail" viewBox="0 0 47 32">
<path d="M45.11 2.286l-13.802 13.714 13.802 13.714c0.25-0.522 0.401-1.098 0.401-1.714v-24c0-0.616-0.151-1.192-0.401-1.714z"></path>
<path d="M41.511 0h-37.511c-0.616 0-1.192 0.151-1.714 0.401l17.641 17.552c1.56 1.56 4.096 1.56 5.656 0l17.641-17.552c-0.521-0.249-1.098-0.401-1.714-0.401z"></path>
<path d="M0.401 2.286c-0.249 0.522-0.401 1.098-0.401 1.714v24c0 0.616 0.151 1.192 0.401 1.714l13.803-13.714-13.803-13.714z"></path>
<path d="M29.422 17.885l-1.953 1.953c-2.599 2.599-6.828 2.599-9.427 0l-1.953-1.953-13.803 13.714c0.522 0.249 1.098 0.401 1.714 0.401h37.511c0.616 0 1.192-0.151 1.714-0.401l-13.802-13.714z"></path>
</symbol>
<symbol id="18" viewBox="0 0 45 45" fill="none" xmlns="http://www.w3.org/2000/svg">
<path d="M14.5318 13.0284C14.0394 12.8238 13.4721 12.9367 13.0951 13.3151L10.2709 16.1485C9.75603 16.6649 9.75603 17.5024 10.2709 18.019C10.7857 18.5354 11.6205 18.5354 12.1353 18.019L12.7089 17.4435V30.8969C12.7738 32.65 15.2814 32.6487 15.3456 30.8969V14.2503C15.3457 13.7154 15.0245 13.2331 14.5318 13.0284Z" fill="white"/>
<path d="M36.6211 21.251H35.1152V19.7401C35.0503 17.9871 32.5427 17.9884 32.4785 19.7401V21.251H30.9727C29.2253 21.3161 29.2266 23.8319 30.9727 23.8963H32.4785V25.4072C32.5434 27.1603 35.051 27.1589 35.1152 25.4072V23.8963H36.6211C38.3685 23.8313 38.3672 21.3154 36.6211 21.251Z" fill="white"/>
<path d="M22.5 12.7505C20.2124 12.7505 18.3574 14.6075 18.3574 16.9067V19.7401C18.3574 20.8017 18.7523 21.8019 19.4708 22.5737C18.7523 23.3455 18.3574 24.3456 18.3574 25.4072V28.2406C18.5576 33.7474 26.4422 33.7477 26.6426 28.2406V25.4072C26.6426 24.3456 26.2477 23.3454 25.5292 22.5737C26.2478 21.8018 26.6426 20.8017 26.6426 19.7401V16.9067C26.6426 14.6116 24.7917 12.7505 22.5 12.7505ZM24.0059 28.2405C23.933 30.2426 21.0669 30.2421 20.9941 28.2405V25.4071C21.0669 23.4051 23.9331 23.4055 24.0059 25.4071V28.2405ZM24.0059 19.7401C23.9331 21.7421 21.0669 21.7418 20.9941 19.7401V16.9067C21.067 14.9046 23.9331 14.9051 24.0059 16.9067V19.7401Z" fill="white"/>
<path d="M22.5 0C10.0934 0 0 10.1265 0 22.5737C1.13115 52.4795 43.8734 52.4714 45 22.5734C45 10.1264 34.9066 0 22.5 0ZM22.5 42.502C11.5473 42.502 2.63672 33.5622 2.63672 22.5737C3.63524 -3.82765 41.3687 -3.82042 42.3633 22.5739C42.3633 33.5622 33.4527 42.502 22.5 42.502Z" fill="white"/>
</symbol>
<symbol id="youtube" viewBox="0 0 22 16" xmlns="http://www.w3.org/2000/svg">
<path d="M10.9992 15.9919C10.9974 15.9919 10.9954 15.9919 10.9933 15.9919C10.3295 15.9873 4.46091 15.9338 2.79822 15.4841C1.63621 15.1718 0.71893 14.2555 0.405728 13.0933C-0.0293314 11.46 -0.00163662 8.3154 0.00138462 8.0643C-0.00146877 7.81437 -0.0294992 4.64375 0.404385 2.997C0.404889 2.99549 0.405224 2.99381 0.405728 2.9923C0.715406 1.84339 1.65333 0.898744 2.79537 0.585542C2.79822 0.584702 2.80124 0.584031 2.80409 0.583192C4.44799 0.151154 10.3282 0.0982819 10.9933 0.09375H11.0053C11.6708 0.0982819 17.555 0.151825 19.2024 0.602158C20.3614 0.913682 21.278 1.82878 21.592 2.98945C22.0434 4.63737 22.0016 7.81488 21.9971 8.0831C22.0002 8.34729 22.0266 11.4637 21.5941 13.1052C21.5937 13.1069 21.5932 13.1084 21.5929 13.1099C21.2795 14.2721 20.3624 15.1884 19.199 15.5011C19.1975 15.5016 19.1959 15.5019 19.1943 15.5024C17.5506 15.9343 11.6703 15.9872 11.0053 15.9919C11.0033 15.9919 11.0012 15.9919 10.9992 15.9919ZM2.06573 3.43776C1.68371 4.89132 1.7198 8.0215 1.72014 8.05305V8.07571C1.70872 8.94382 1.74884 11.4578 2.0659 12.6485C2.21965 13.2187 2.672 13.6704 3.2457 13.8246C4.47249 14.1565 9.25227 14.2609 10.9992 14.2731C12.7507 14.2609 17.5375 14.1593 18.7553 13.8408C19.3271 13.686 19.778 13.2358 19.9327 12.665C20.2501 11.4568 20.2899 8.95506 20.2783 8.0925C20.2783 8.08343 20.2783 8.07437 20.2785 8.06531C20.2943 7.18679 20.2632 4.64341 19.9342 3.44314C19.9339 3.44196 19.9335 3.44079 19.9334 3.43961C19.779 2.86692 19.3264 2.41524 18.7527 2.26099C17.5379 1.92882 12.7504 1.82476 10.9992 1.8125C9.24891 1.82476 4.46679 1.92614 3.24536 2.24437C2.68257 2.40047 2.21999 2.86826 2.06573 3.43776ZM8.80865 11.5231V4.56234L14.8243 8.04281L8.80865 11.5231Z"/>
</symbol>
<symbol id="instagram" viewBox="0 0 19 19" xmlns="http://www.w3.org/2000/svg">
<path d="M9.68737 19C9.62445 19 9.56154 19 9.49819 18.9997C8.00883 19.0033 6.63268 18.9655 5.29438 18.884C4.0674 18.8094 2.94741 18.3854 2.0553 17.658C1.1945 16.9561 0.606674 16.007 0.308194 14.8375C0.048418 13.8193 0.0346464 12.8198 0.0214547 11.8531C0.011887 11.1595 0.0020295 10.3375 0 9.50171C0.0020295 8.6624 0.011887 7.84048 0.0214547 7.14686C0.0346464 6.18027 0.048418 5.18078 0.308194 4.16244C0.606674 2.99291 1.1945 2.04387 2.0553 1.34198C2.94741 0.614572 4.0674 0.190568 5.29452 0.115914C6.63283 0.0345919 8.00926 -0.00338736 9.50181 0.000236614C10.9916 -0.00295248 12.3673 0.0345919 13.7056 0.115914C14.9326 0.190568 16.0526 0.614572 16.9447 1.34198C17.8056 2.04387 18.3933 2.99291 18.6918 4.16244C18.9516 5.18063 18.9654 6.18027 18.9785 7.14686C18.9881 7.84048 18.9981 8.6624 19 9.49823V9.50171C18.9981 10.3375 18.9881 11.1595 18.9785 11.8531C18.9654 12.8197 18.9517 13.8192 18.6918 14.8375C18.3933 16.007 17.8056 16.9561 16.9447 17.658C16.0526 18.3854 14.9326 18.8094 13.7056 18.884C12.424 18.962 11.1074 19 9.68737 19ZM9.49819 17.5153C10.9633 17.5188 12.3086 17.4818 13.6155 17.4024C14.5432 17.346 15.3476 17.0449 16.0066 16.5076C16.6158 16.0108 17.0353 15.3254 17.2535 14.4705C17.4698 13.6229 17.4822 12.7128 17.4943 11.8328C17.5037 11.1438 17.5135 10.3277 17.5156 9.49997C17.5135 8.67211 17.5037 7.85614 17.4943 7.16715C17.4822 6.2871 17.4698 5.37705 17.2535 4.52933C17.0353 3.67437 16.6158 2.989 16.0066 2.49223C15.3476 1.95501 14.5432 1.65393 13.6155 1.59754C12.3086 1.51796 10.9633 1.48128 9.50167 1.48447C8.03681 1.48099 6.69139 1.51796 5.38454 1.59754C4.45677 1.65393 3.65237 1.95501 2.99336 2.49223C2.38422 2.989 1.9647 3.67437 1.74653 4.52933C1.53024 5.37705 1.51777 6.28696 1.50574 7.16715C1.49632 7.85672 1.48646 8.67327 1.48443 9.50171C1.48646 10.3265 1.49632 11.1432 1.50574 11.8328C1.51777 12.7128 1.53024 13.6229 1.74653 14.4705C1.9647 15.3254 2.38422 16.0108 2.99336 16.5076C3.65237 17.0448 4.45677 17.3459 5.38454 17.4023C6.69139 17.4818 8.0371 17.519 9.49819 17.5153ZM9.46282 14.1387C6.90507 14.1387 4.82397 12.0578 4.82397 9.49997C4.82397 6.94217 6.90507 4.86129 9.46282 4.86129C12.0207 4.86129 14.1017 6.94217 14.1017 9.49997C14.1017 12.0578 12.0207 14.1387 9.46282 14.1387ZM9.46282 6.34567C7.72354 6.34567 6.3084 7.76076 6.3084 9.49997C6.3084 11.2392 7.72354 12.6543 9.46282 12.6543C11.2022 12.6543 12.6172 11.2392 12.6172 9.49997C12.6172 7.76076 11.2022 6.34567 9.46282 6.34567ZM14.6212 3.37691C14.0064 3.37691 13.5079 3.87528 13.5079 4.49019C13.5079 5.10511 14.0064 5.60348 14.6212 5.60348C15.2362 5.60348 15.7345 5.10511 15.7345 4.49019C15.7345 3.87528 15.2362 3.37691 14.6212 3.37691Z"/>
</symbol>
<symbol id="facebook" viewBox="0 0 11 21" xmlns="http://www.w3.org/2000/svg">
<path d="M0.647008 12.1949H2.81923V20.3429C2.81923 20.7051 3.10823 20.9991 3.46624 20.9991L6.92299 21C7.281 21 7.56999 20.7051 7.56999 20.3438V12.1957H9.62921C9.9553 12.1957 10.2305 11.949 10.271 11.6209L10.7007 8.12088C10.749 7.73063 10.4479 7.38325 10.0588 7.38325H7.56999C7.66748 5.22113 7.19473 4.5815 8.58105 4.5815C9.51965 4.46775 11 4.94988 11 3.92525V0.795375C11 0.46725 10.761 0.189875 10.441 0.14525C10.1701 0.107625 9.09952 0 7.77186 0C1.72449 0 2.96934 6.8005 2.82009 7.38238H0.647008C0.28986 7.38238 0 7.67638 0 8.03863V11.5386C0 11.9009 0.28986 12.1949 0.647008 12.1949ZM1.29402 8.69575H3.46624C3.82339 8.69575 4.11325 8.40175 4.11325 8.0395V5.28238C4.11325 2.75975 5.44608 1.31338 7.771 1.31338C8.52843 1.31338 9.22547 1.351 9.70512 1.3895V3.26988C9.35833 3.44925 6.27512 2.49637 6.27512 5.62975V8.04038C6.27512 8.40263 6.56498 8.69663 6.92212 8.69663H9.32554L9.05639 10.8841H6.92212C6.56498 10.8841 6.27512 11.1781 6.27512 11.5404V19.6875H4.11411V11.5395C4.11411 11.1772 3.82425 10.8832 3.4671 10.8832H1.29402V8.69575Z"/>
</symbol>
</defs>
</svg>
