<svg aria-hidden="true" style="position: absolute; width: 0; height: 0; overflow: hidden;" version="1.1" xmlns="http://www.w3.org/2000/svg" xmlns:xlink="http://www.w3.org/1999/xlink">
<defs>
<symbol id="01" viewBox="0 0 32 32">
<path fill="#92a0ab" style="fill: var(--color1, #92a0ab)" d="M18.932 16l12.46-12.461c0.811-0.811 0.811-2.121 0-2.932s-2.121-0.811-2.931 0l-12.46 12.461-12.46-12.461c-0.811-0.811-2.121-0.811-2.932 0s-0.811 2.121 0 2.932l12.46 12.461-12.46 12.461c-0.811 0.811-0.811 2.121 0 2.931 0.404 0.404 0.935 0.607 1.466 0.607s1.061-0.203 1.466-0.607l12.46-12.461 12.46 12.461c0.404 0.404 0.935 0.607 1.466 0.607s1.061-0.203 1.466-0.607c0.811-0.811 0.811-2.121 0-2.931l-12.46-12.461z"></path>
</symbol>
<symbol id="02" viewBox="0 0 33 32">
<path fill="#ffad45" style="fill: var(--color2, #ffad45)" d="M17.886 17.501l12.761-0c0.83 0 1.501-0.671 1.501-1.501s-0.671-1.501-1.501-1.501l-12.761 0 0-12.761c-0-0.83-0.671-1.501-1.501-1.501s-1.501 0.671-1.501 1.501l-0 12.761-12.761 0c-0.83-0-1.501 0.671-1.501 1.501-0 0.414 0.168 0.79 0.44 1.062s0.647 0.439 1.062 0.439l12.761-0-0 12.761c0 0.414 0.168 0.79 0.44 1.062s0.647 0.439 1.062 0.439c0.83 0 1.501-0.671 1.501-1.501l0-12.761z"></path>
</symbol>
<symbol id="03" viewBox="0 0 32 32">
<path fill="#ffad45" style="fill: var(--color2, #ffad45)" d="M25.612 17.406l-9.612 9.612-9.612-9.612 1.768-1.768 6.594 6.594v-22.232h2.5v22.232l6.594-6.594 1.768 1.768zM32 29.5h-32v2.5h32v-2.5z"></path>
</symbol>
</defs>
</svg>
